<?xml version="1.0" encoding="UTF-8"?>
<svg width="53px" height="53px" viewBox="0 0 53 53" version="1.1" xmlns="http://www.w3.org/2000/svg" xmlns:xlink="http://www.w3.org/1999/xlink">
    <!-- Generator: Sketch 43.2 (39069) - http://www.bohemiancoding.com/sketch -->
    <title>ad</title>
    <desc>Created with Sketch.</desc>
    <defs>
        <path d="M43.0881501,57.6332667 C42.3610428,58.0683458 41.380307,57.645269 41.3046036,56.8638676 L39.0046493,33.1240126 C38.9193683,32.2437519 40.0255448,31.6805103 40.823604,32.1978395 L61.523193,45.6160184 C62.1924787,46.0498722 62.1494851,46.9566056 61.4415506,47.3378517 L56.6454398,49.9207152 L61.8551531,58.3375216 C62.1460913,58.8075609 61.9862481,59.3993365 61.4877848,59.6976019 L54.5879218,63.8262723 C53.9801641,64.1899362 53.1535785,63.9595078 52.8823022,63.3507944 L48.8087602,54.2102257 L43.0881501,57.6332667 Z" id="path-1"></path>
    </defs>
    <g id="Page-2" stroke="none" stroke-width="1" fill="none" fill-rule="evenodd">
        <g id="Group-14" transform="translate(-12.000000, -12.000000)">
            <g id="Group">
                <mask id="mask-2" fill="white">
                    <use xlink:href="#path-1"></use>
                </mask>
                <use id="Combined-Shape-Copy-2" fill="#FFFFFF" transform="translate(50.500000, 48.000000) rotate(-15.000000) translate(-50.500000, -48.000000) " xlink:href="#path-1"></use>
                <path d="M42.74156,57.0540428 C42.4220158,57.2452484 42.0021658,57.0641305 41.976458,56.7987773 L39.6765036,33.0589223 C39.6487921,32.7728871 40.1085992,32.5387631 40.4564403,32.7642455 L61.1560293,46.1824244 C61.3926652,46.3358199 61.3799313,46.6043778 61.1215003,46.7435514 L56.3253896,49.3264149 L55.6941581,49.6663539 L56.0714898,50.2759705 L61.2812031,58.6927769 C61.3697203,58.8357853 61.3227305,59.0097525 61.1411947,59.118378 L54.2413317,63.2470485 C53.9719892,63.4082149 53.6007698,63.3047295 53.4988477,63.0760277 L49.4253057,53.935459 L49.1154222,53.2401154 L48.4621701,53.6310018 L42.74156,57.0540428 Z" id="Combined-Shape-Copy-3" stroke="#3A3A3A" stroke-width="1.35" transform="translate(50.500000, 48.000000) rotate(-15.000000) translate(-50.500000, -48.000000) "></path>
                <g id="Group-15-Copy" transform="translate(32.184885, 31.886752) rotate(-40.000000) translate(-32.184885, -31.886752) translate(7.684885, 11.386752)" fill="#3A3A3A">
                    <rect id="Rectangle-9" transform="translate(41.095889, 27.867740) rotate(96.000000) translate(-41.095889, -27.867740) " x="40.4208889" y="20.1887057" width="1.35000002" height="15.3580693" rx="0.675000012"></rect>
                    <path d="M36.4420597,9.37169614 C36.4420597,8.99999034 36.7416684,8.69866326 37.1170597,8.69866326 L37.1170597,8.69866326 C37.4898519,8.69866326 37.7920597,8.99593508 37.7920597,9.37705009 L37.7920597,16.0496485 L37.7920597,22.3012368 C37.7920597,22.6751075 37.4924509,22.9781896 37.1170597,22.9781896 L37.1170597,22.9781896 C36.7442675,22.9781896 36.4420597,22.6841425 36.4420597,22.2970114 L36.4420597,16.1349117 L36.4420597,9.37169614 Z" id="Rectangle-9-Copy" transform="translate(37.117060, 15.838426) rotate(43.000000) translate(-37.117060, -15.838426) "></path>
                    <rect id="Rectangle-9-Copy-2" transform="translate(27.578048, 8.998059) rotate(5.000000) translate(-27.578048, -8.998059) " x="26.9030484" y="0.850131309" width="1.35000002" height="16.2958559" rx="0.675000012"></rect>
                    <rect id="Rectangle-9-Copy-3" transform="translate(14.892268, 12.742575) rotate(-410.000000) translate(-14.892268, -12.742575) " x="14.2172675" y="5.42933226" width="1.35000002" height="14.6264859" rx="0.675000012"></rect>
                    <rect id="Rectangle-9-Copy-4" transform="translate(8.405713, 23.336497) rotate(-434.000000) translate(-8.405713, -23.336497) " x="7.7307127" y="15.1019141" width="1.35000002" height="16.4691657" rx="0.675000012"></rect>
                    <path d="M9.84869915,29.126306 C9.84869915,28.7524602 10.1483079,28.4493983 10.5236992,28.4493983 L10.5236992,28.4493983 C10.8964914,28.4493983 11.1986992,28.7491436 11.1986992,29.1334297 L11.1986992,35.8615473 L11.1986992,41.9546792 C11.1986992,42.326673 10.8990904,42.6282335 10.5236992,42.6282335 L10.5236992,42.6282335 C10.150907,42.6282335 9.84869915,42.3341607 9.84869915,41.9469956 L9.84869915,35.7843557 L9.84869915,29.126306 Z" id="Rectangle-9-Copy-5" transform="translate(10.523699, 35.538816) rotate(-485.000000) translate(-10.523699, -35.538816) "></path>
                </g>
            </g>
        </g>
    </g>
</svg>