<?xml version="1.0" encoding="UTF-8"?>
<svg width="53px" height="53px" viewBox="0 0 53 53" version="1.1" xmlns="http://www.w3.org/2000/svg" xmlns:xlink="http://www.w3.org/1999/xlink">
    <!-- Generator: Sketch 43.2 (39069) - http://www.bohemiancoding.com/sketch -->
    <title>email</title>
    <desc>Created with Sketch.</desc>
    <defs></defs>
    <g id="Page-2" stroke="none" stroke-width="1" fill="none" fill-rule="evenodd">
        <g id="Group-8-Copy" transform="translate(5.000000, 5.000000)">
            <path d="M0.594226177,13.8102278 C0.266044121,13.978413 2.53434037e-13,14.4092364 2.5336264e-13,14.789286 L2.48689958e-13,39.6619526 C2.48619972e-13,40.0344863 0.299819514,40.3364845 0.663244749,40.3364845 L42.6649856,40.3364845 C43.0312856,40.3364845 43.3282304,40.0416222 43.3282304,39.6610823 L43.3282304,14.7563255 C43.3282304,14.3833112 43.0617355,13.9530615 42.7305926,13.7941821 L21.5822531,3.647397 C21.2521869,3.48903417 20.7192923,3.49662728 20.3903892,3.66518201 L0.594226177,13.8102278 Z" id="Path-2" fill="#FFFFFF"></path>
            <path d="M1.35384615,39.4563311 L41.9743842,39.4563311 L41.9743842,15.3884437 L21.0048098,5.32742855 C21.0497622,5.34899632 1.35384615,15.3978018 1.35384615,15.3978018 L1.35384615,39.4563311 Z M0.605397797,14.2686116 L20.3792176,4.13501613 C20.7192923,3.96073622 21.257375,3.95563232 21.5938411,4.11706575 L42.7190047,14.2527312 C43.0537856,14.4133561 43.3282304,14.8474201 43.3282304,15.2204345 L43.3282304,40.1251912 C43.3282304,40.5057312 43.023523,40.8005934 42.6476473,40.8005934 L0.680583033,40.8005934 C0.299819514,40.8005934 2.48619972e-13,40.4985952 2.48689958e-13,40.1260615 L2.5336264e-13,15.253395 C2.53434037e-13,14.8733454 0.271045826,14.4399587 0.605397797,14.2686116 Z" id="Path-2-Copy" fill="#3A3A3A" fill-rule="nonzero"></path>
            <polygon id="Path-4" fill="#3A3A3A" fill-rule="nonzero" points="1.88243427 40.0756147 14.9914196 23.805381 13.9342433 22.965627 0.825258037 39.2358607"></polygon>
            <polygon id="Path-4-Copy" fill="#3A3A3A" fill-rule="nonzero" points="42.4911126 39.2276698 29.6295741 23.7686535 28.5858105 24.6247892 41.447349 40.0838056"></polygon>
            <polygon id="Path-18" fill="#3A3A3A" fill-rule="nonzero" points="21.6676246 27.4257358 1.72933552 14.2276383 0.97835679 15.3461322 21.6554523 29.0332806 43.013132 15.3516748 42.2791757 14.2220957"></polygon>
            <path d="M8.12307692,18.8196721 L8.12307692,1.32754914 C8.12307692,0.958699915 8.42156057,0.693943671 8.78882668,0.732897841 C8.78882668,0.732897841 13.5384615,1.33181969 22.3384615,1.33181969 C31.1384615,1.33181969 35.9080173,0.731618347 35.9080173,0.731618347 C36.269315,0.691892611 36.5622047,0.963223 36.5622047,1.32387864 L36.5622047,18.147543" id="Path-19" fill="#FFFFFF"></path>
            <path d="M8.94667015,1.42780776 C9.13341836,1.44860809 9.35586974,1.471719 9.61369516,1.49655649 C10.3476078,1.5672576 11.2190654,1.63785643 12.2254346,1.70368061 C15.0954343,1.89140037 18.4734673,2.00395084 22.3384615,2.00395084 C26.2034637,2.00395084 29.5852491,1.89115829 32.4614966,1.70303643 C33.4700346,1.63707269 34.3438156,1.566325 35.0800502,1.49547591 C35.3386811,1.47058742 35.561879,1.44742955 35.7492952,1.42658758 C35.8026712,1.4206518 35.848012,1.41548398 35.8852816,1.41114464 L35.8852816,18.8196741 L37.2391277,18.147543 L37.2391277,1.33451769 C37.2391277,0.564817963 36.592299,-0.0198456434 35.8211319,0.0648400845 C35.7764857,0.0703746409 35.7057739,0.0787602461 35.598607,0.0906779529 C35.4178632,0.110777905 35.2013614,0.133241029 34.9494504,0.157482848 C34.2269937,0.227006066 33.3670833,0.296630684 32.3725094,0.3616811 C29.5255801,0.547885397 26.1734594,0.65968854 22.3384615,0.65968854 C18.5034558,0.65968854 15.1550899,0.54812653 12.3144249,0.362325486 C11.3220615,0.297417389 10.4645198,0.22794592 9.74443321,0.158576733 C9.49335889,0.134389613 9.27763551,0.111977682 9.09759226,0.0919241676 C8.99085424,0.0800355105 8.9204545,0.0716717112 8.88672226,0.067416014 C8.09712989,-0.0163754475 7.44615385,0.555504351 7.44615385,1.32754914 L7.44615385,18.8196721 L8.8,19.4918033 L8.8,1.41108585 C8.83748366,1.41548825 8.88704503,1.42116662 8.94667015,1.42780776 Z" id="Path-19-Copy" fill="#3A3A3A" fill-rule="nonzero"></path>
            <path d="M14.6538462,9.3442623 L30.3461538,9.3442623 C30.7072631,9.3442623 31,9.04333893 31,8.67213115 C31,8.30092336 30.7072631,8 30.3461538,8 L14.6538462,8 C14.2927369,8 14,8.30092336 14,8.67213115 C14,9.04333893 14.2927369,9.3442623 14.6538462,9.3442623 Z" id="Path-20" fill="#3A3A3A" fill-rule="nonzero"></path>
            <path d="M15.6622779,14.5798476 L28.3289144,15.2465032 C28.6965945,15.2658545 29.0103456,14.9834825 29.0296972,14.6158077 C29.0490488,14.2481329 28.7666727,13.9343863 28.3989927,13.915035 L15.7323562,13.2483794 C15.3646761,13.2290281 15.050925,13.5114001 15.0315734,13.8790749 C15.0122218,14.2467497 15.2945978,14.5604963 15.6622779,14.5798476 Z" id="Path-20-Copy" fill="#3A3A3A" fill-rule="nonzero" transform="translate(22.030635, 14.247441) rotate(-2.000000) translate(-22.030635, -14.247441) "></path>
        </g>
    </g>
</svg>