<?xml version="1.0" encoding="utf-8"?>
<!-- Generator: Adobe Illustrator 17.1.0, SVG Export Plug-In . SVG Version: 6.00 Build 0)  -->
<!DOCTYPE svg PUBLIC "-//W3C//DTD SVG 1.1//EN" "http://www.w3.org/Graphics/SVG/1.1/DTD/svg11.dtd">
<svg version="1.1" xmlns="http://www.w3.org/2000/svg" xmlns:xlink="http://www.w3.org/1999/xlink" x="0px" y="0px"
	 viewBox="0 0 90 90" style="enable-background:new 0 0 90 90;" xml:space="preserve">
<style type="text/css">
	.st0{fill:#959595;}
	.st1{fill:#D0D0D0;}
	.st2{fill:#373737;}
	.st3{fill:none;stroke:#959595;stroke-width:4;stroke-linecap:square;stroke-miterlimit:10;}
	.st4{fill:#FFFFFF;}
</style>
<g id="Layer_1">
	<g>
		<g>
			<path class="st1" d="M38,67h-6v-8c0-0.8,0.3-1.6,0.9-2.1l3.2-3.2l-7.5-4.1c-0.9-0.5-1.5-1.5-1.6-2.5c0-1.1,0.5-2.1,1.4-2.6
				l7.1-4.5l-2.2-1.4C32.5,37.9,32,37,32,36v-8h6v6.4l4.7,3.1C43.5,38.1,44,39,44,40c0,1-0.5,2-1.4,2.5l-6.7,4.3l6.5,3.6
				c0.8,0.5,1.4,1.3,1.5,2.2c0.1,0.9-0.2,1.9-0.8,2.5L38,60.2V67z"/>
		</g>
		<g>
			<path class="st1" d="M60.3,6.3c-1.2,0-2,1.8-2,3.7c0,1.2,0.4,1.8,1.3,1.8c1.2,0,2-1.8,2-3.7C61.6,6.9,61.2,6.3,60.3,6.3z"/>
			<path class="st1" d="M42,0v18h11l-1,6l8-6h30V0H42z M51.9,13.1l0.5-3.4h-2.5l-0.5,3.4h-2l1.3-8.3h2L50.2,8h2.5l0.5-3.1h2
				l-1.3,8.3H51.9z M59.5,13.3c-2,0-3.2-1.2-3.2-3.5c0-2.9,1.7-5.1,4.2-5.1c2,0,3.3,1.2,3.3,3.5C63.7,11.1,62,13.3,59.5,13.3z
				 M71.2,13.1h-1.6l-2.3-5l-0.8,5h-1.9L66,4.9h1.9l2,4.6l0.7-4.6h1.9L71.2,13.1z M80,12.9l-2.2,0.4l-1.9-3.9l-0.6,3.8h-2l1.3-8.3h2
				l-0.6,3.5l2.8-3.5H81l-3.2,3.9L80,12.9z M83.2,13.1h-1.9l0.3-2h1.9L83.2,13.1z M83.3,10.1l-1.1,0.3l0.3-5.5h2.2L83.3,10.1z"/>
		</g>
		<g>
			<path class="st1" d="M33,30c6.8,0,18.8,2.4,28.9,7.6C69.3,41.4,78,47.8,78,57s-8.7,15.6-16.1,19.4C51.8,81.6,39.8,84,33,84
				C14.8,84,6,75.2,6,57C6,39.8,15.8,30,33,30 M33,24C13,24,0,36,0,57c0,23,13,33,33,33c16.4,0,51-11,51-33S49.4,24,33,24L33,24z"/>
		</g>
	</g>
</g>
<g id="Layer_2">
</g>
</svg>
