<svg id="Layer_1" xmlns="http://www.w3.org/2000/svg" width="220" height="150" viewBox="0 0 220 150"><style>.st0{fill:#FFEBB2;} .st1{fill:#8DE0D4;} .st2{fill:#737373;} .st3{fill:#73E8CC;}</style><path class="st0" d="M9.7 121.8c-2.9 0-5.2 2.3-5.2 5.2v.4l10.4-.8c-.2-2.7-2.4-4.8-5.2-4.8zM4.5 116.5c0-2-1.2-3.8-2.9-4.6l.6 9c1.4-1 2.3-2.5 2.3-4.4zM15 106.1c0-2.2-1.4-4.1-3.3-4.8l-7.1 3.9c-.1.3-.1.6-.1 1 0 2.9 2.3 5.2 5.2 5.2 2.9-.1 5.3-2.4 5.3-5.3zM30.7 121.8c-2.5 0-4.5 1.7-5.1 4l9.9-.7c-.7-2-2.6-3.3-4.8-3.3z"/><circle class="st0" cx="20.2" cy="116.5" r="5.2"/><path class="st0" d="M35.9 106.1c0-2.9-2.3-5.2-5.2-5.2-2.9 0-5.2 2.3-5.2 5.2 0 2.9 2.3 5.2 5.2 5.2 2.9 0 5.2-2.3 5.2-5.2zM20.2 100.8c2.9 0 5.2-2.3 5.2-5.2 0-.6-.1-1.2-.3-1.7l-9 4.9c1 1.2 2.4 2 4.1 2zM32 90.2c.8-.2 1.5-.6 2.2-1.2L32 90.2zM51.6 121.8c-1.9 0-3.5 1-4.4 2.4l8.3-.6c-.9-1.1-2.3-1.8-3.9-1.8z"/><circle class="st0" cx="41.1" cy="116.5" r="5.2"/><path class="st0" d="M56.8 106.1c0-2.9-2.3-5.2-5.2-5.2-2.9 0-5.2 2.3-5.2 5.2 0 2.9 2.3 5.2 5.2 5.2 2.9 0 5.2-2.3 5.2-5.2zM35.9 95.6c0 2.9 2.3 5.2 5.2 5.2 2.9 0 5.2-2.3 5.2-5.2 0-2.9-2.3-5.2-5.2-5.2-2.8 0-5.2 2.3-5.2 5.2zM51.6 90.4c2.9 0 5.2-2.3 5.2-5.2 0-2.9-2.3-5.2-5.2-5.2-.3 0-.6 0-.9.1l-3 1.6c-.9.9-1.4 2.2-1.4 3.5.1 2.8 2.4 5.2 5.3 5.2zM72.6 121.8c-.9 0-1.7.2-2.4.6l3.7-.4c-.5-.1-.9-.2-1.3-.2z"/><circle class="st0" cx="62.1" cy="116.5" r="5.2"/><path class="st0" d="M77.8 106.1c0-2.9-2.3-5.2-5.2-5.2-2.9 0-5.2 2.3-5.2 5.2 0 2.9 2.3 5.2 5.2 5.2 2.8 0 5.2-2.3 5.2-5.2zM56.8 95.6c0 2.9 2.3 5.2 5.2 5.2 2.9 0 5.2-2.3 5.2-5.2 0-2.9-2.3-5.2-5.2-5.2-2.8 0-5.2 2.3-5.2 5.2zM72.6 90.4c2.9 0 5.2-2.3 5.2-5.2 0-2.9-2.3-5.2-5.2-5.2-2.9 0-5.2 2.3-5.2 5.2-.1 2.8 2.3 5.2 5.2 5.2zM67.3 74.7c0-.8-.2-1.6-.6-2.3l-4.2 1.2-5.4 2.9c.7 2 2.6 3.4 4.9 3.4 3 0 5.3-2.3 5.3-5.2zM88.3 116.5c0-2.9-2.3-5.2-5.2-5.2-2.9 0-5.2 2.3-5.2 5.2 0 2 1.2 3.7 2.8 4.6l5.8-.7c1-.9 1.8-2.3 1.8-3.9zM98.7 106.1c0-2.9-2.3-5.2-5.2-5.2-2.9 0-5.2 2.3-5.2 5.2 0 2.9 2.3 5.2 5.2 5.2 2.9 0 5.2-2.3 5.2-5.2zM88.3 95.6c0-2.9-2.3-5.2-5.2-5.2-2.9 0-5.2 2.3-5.2 5.2 0 2.9 2.3 5.2 5.2 5.2 2.8 0 5.2-2.3 5.2-5.2zM93.5 90.4c2.9 0 5.2-2.3 5.2-5.2 0-2.9-2.3-5.2-5.2-5.2-2.9 0-5.2 2.3-5.2 5.2 0 2.8 2.3 5.2 5.2 5.2z"/><circle class="st0" cx="83" cy="74.7" r="5.2"/><path class="st0" d="M93.5 69.4c2.9 0 5.2-2.3 5.2-5.2 0-1.8-.9-3.3-2.3-4.3-4.2 3.2-7.2 5.7-7.2 5.7l-.7.2c.7 2.1 2.7 3.6 5 3.6zM104 111.3c-2.9 0-5.2 2.3-5.2 5.2 0 .9.2 1.7.6 2.4l9.7-1.1c.1-.4.2-.9.2-1.3-.1-2.8-2.5-5.2-5.3-5.2zM119.7 106.1c0-2.9-2.3-5.2-5.2-5.2-2.9 0-5.2 2.3-5.2 5.2 0 2.9 2.3 5.2 5.2 5.2 2.8 0 5.2-2.3 5.2-5.2zM109.2 95.6c0-2.9-2.3-5.2-5.2-5.2-2.9 0-5.2 2.3-5.2 5.2 0 2.9 2.3 5.2 5.2 5.2 2.8 0 5.2-2.3 5.2-5.2zM114.4 90.4c2.9 0 5.2-2.3 5.2-5.2 0-2.9-2.3-5.2-5.2-5.2-2.9 0-5.2 2.3-5.2 5.2 0 2.8 2.3 5.2 5.2 5.2z"/><circle class="st0" cx="104" cy="74.7" r="5.2"/><path class="st0" d="M119.7 64.2c0-2.9-2.3-5.2-5.2-5.2-2.9 0-5.2 2.3-5.2 5.2 0 2.9 2.3 5.2 5.2 5.2 2.8 0 5.2-2.3 5.2-5.2zM104 59c2.9 0 5.2-2.3 5.2-5.2 0-1-.3-2-.8-2.8-2.7 2-5.6 4.1-8.3 6.2.9 1.1 2.3 1.8 3.9 1.8zM112.4 48.1c.6.3 1.3.4 2 .4 2.5 0 4.6-1.8 5.1-4.2-.2 0-.4.1-.5.1-1.2.3-3.6 1.7-6.6 3.7zM124.9 111.3c-2.9 0-5.2 2.3-5.2 5.2v.1l10.3-1.2c-.5-2.3-2.6-4.1-5.1-4.1zM140.6 106.1c0-2.9-2.3-5.2-5.2-5.2-2.9 0-5.2 2.3-5.2 5.2 0 2.9 2.3 5.2 5.2 5.2 2.8 0 5.2-2.3 5.2-5.2zM130.1 95.6c0-2.9-2.3-5.2-5.2-5.2-2.9 0-5.2 2.3-5.2 5.2 0 2.9 2.3 5.2 5.2 5.2 2.9 0 5.2-2.3 5.2-5.2zM135.4 90.4c2.9 0 5.2-2.3 5.2-5.2 0-2.9-2.3-5.2-5.2-5.2-2.9 0-5.2 2.3-5.2 5.2-.1 2.8 2.3 5.2 5.2 5.2z"/><circle class="st0" cx="124.9" cy="74.7" r="5.2"/><path class="st0" d="M140.6 64.2c0-2.9-2.3-5.2-5.2-5.2-2.9 0-5.2 2.3-5.2 5.2 0 2.9 2.3 5.2 5.2 5.2 2.8 0 5.2-2.3 5.2-5.2zM119.7 53.7c0 2.9 2.3 5.2 5.2 5.2 2.9 0 5.2-2.3 5.2-5.2 0-2.9-2.3-5.2-5.2-5.2-2.9 0-5.2 2.3-5.2 5.2zM135.4 48.5c2.9 0 5.2-2.3 5.2-5.2 0-1.9-1-3.5-2.4-4.4-2.5.8-5.1 1.6-7.6 2.3-.3.6-.4 1.3-.4 2.1-.1 2.9 2.3 5.2 5.2 5.2zM145.8 111.3c-2 0-3.7 1.1-4.6 2.8l8.5-1c-.9-1.1-2.3-1.8-3.9-1.8zM161.5 106.1c0-2.9-2.3-5.2-5.2-5.2-2.9 0-5.2 2.3-5.2 5.2 0 2.9 2.3 5.2 5.2 5.2 2.9 0 5.2-2.3 5.2-5.2zM151.1 95.6c0-2.9-2.3-5.2-5.2-5.2-2.9 0-5.2 2.3-5.2 5.2 0 2.9 2.3 5.2 5.2 5.2 2.8 0 5.2-2.3 5.2-5.2zM156.3 90.4c2.9 0 5.2-2.3 5.2-5.2 0-2.9-2.3-5.2-5.2-5.2-2.9 0-5.2 2.3-5.2 5.2 0 2.8 2.3 5.2 5.2 5.2z"/><circle class="st0" cx="145.8" cy="74.7" r="5.2"/><path class="st0" d="M161.5 64.2c0-2.9-2.3-5.2-5.2-5.2-2.9 0-5.2 2.3-5.2 5.2 0 2.9 2.3 5.2 5.2 5.2 2.9 0 5.2-2.3 5.2-5.2zM140.6 53.7c0 2.9 2.3 5.2 5.2 5.2 2.9 0 5.2-2.3 5.2-5.2 0-2.9-2.3-5.2-5.2-5.2-2.9 0-5.2 2.3-5.2 5.2zM156.3 38c-2.9 0-5.2 2.3-5.2 5.2 0 2.9 2.3 5.2 5.2 5.2 2.9 0 5.2-2.3 5.2-5.2 0-2.8-2.3-5.2-5.2-5.2zM145.8 38c2.1 0 3.9-1.3 4.8-3.1-1.5.5-4.2 1.3-7.4 2.3.8.6 1.7.8 2.6.8zM182.5 106.1c0-2.9-2.3-5.2-5.2-5.2-2.9 0-5.2 2.3-5.2 5.2 0 1.7.8 3.2 2.1 4.2l7.1-.8c.7-1 1.2-2.1 1.2-3.4zM172 95.6c0-2.9-2.3-5.2-5.2-5.2-2.9 0-5.2 2.3-5.2 5.2 0 2.9 2.3 5.2 5.2 5.2 2.9 0 5.2-2.3 5.2-5.2zM177.2 90.4c2.9 0 5.2-2.3 5.2-5.2 0-2.9-2.3-5.2-5.2-5.2-2.9 0-5.2 2.3-5.2 5.2 0 2.8 2.3 5.2 5.2 5.2z"/><circle class="st0" cx="166.8" cy="74.7" r="5.2"/><path class="st0" d="M182.5 64.2c0-2.9-2.3-5.2-5.2-5.2-2.9 0-5.2 2.3-5.2 5.2 0 2.9 2.3 5.2 5.2 5.2 2.8 0 5.2-2.3 5.2-5.2zM161.5 53.7c0 2.9 2.3 5.2 5.2 5.2 2.9 0 5.2-2.3 5.2-5.2 0-2.9-2.3-5.2-5.2-5.2-2.8 0-5.2 2.3-5.2 5.2zM177.2 38c-2.9 0-5.2 2.3-5.2 5.2 0 2.9 2.3 5.2 5.2 5.2 2.9 0 5.2-2.3 5.2-5.2.1-2.8-2.3-5.2-5.2-5.2zM166.8 38c2.9 0 5.2-2.3 5.2-5.2 0-2.1-1.2-3.8-2.9-4.7l-7.2 2.7c-.3.6-.4 1.3-.4 2 0 2.9 2.4 5.2 5.3 5.2zM177.2 27.6c.6 0 1.2-.1 1.7-.3l-2.6.2c.4 0 .6.1.9.1zM203.4 106.1c0-2.9-2.3-5.2-5.2-5.2-2.9 0-5.2 2.3-5.2 5.2 0 .7.1 1.3.4 1.9l10-1.2v-.7zM182.5 95.6c0 2.9 2.3 5.2 5.2 5.2 2.9 0 5.2-2.3 5.2-5.2 0-2.9-2.3-5.2-5.2-5.2-2.9 0-5.2 2.3-5.2 5.2zM198.2 79.9c-2.9 0-5.2 2.3-5.2 5.2 0 2.9 2.3 5.2 5.2 5.2 2.9 0 5.2-2.3 5.2-5.2 0-2.9-2.3-5.2-5.2-5.2z"/><circle class="st0" cx="187.7" cy="74.7" r="5.2"/><path class="st0" d="M203.4 64.2c0-2.9-2.3-5.2-5.2-5.2-2.9 0-5.2 2.3-5.2 5.2 0 2.9 2.3 5.2 5.2 5.2 2.9 0 5.2-2.3 5.2-5.2zM182.5 53.7c0 2.9 2.3 5.2 5.2 5.2 2.9 0 5.2-2.3 5.2-5.2 0-2.9-2.3-5.2-5.2-5.2-2.9 0-5.2 2.3-5.2 5.2zM192.9 43.3c0 2.9 2.3 5.2 5.2 5.2 2.9 0 5.2-2.3 5.2-5.2 0-2.9-2.3-5.2-5.2-5.2-2.8-.1-5.2 2.3-5.2 5.2z"/><circle class="st0" cx="187.7" cy="32.8" r="5.2"/><path class="st0" d="M198.2 27.6c1.8 0 3.5-1 4.4-2.4l-8.2.7c.9 1 2.3 1.7 3.8 1.7zM213.9 105.6l5.7-.7-.5-4.1c-2.7 0-5 2.1-5.2 4.8zM203.4 95.6c0 2.9 2.3 5.2 5.2 5.2 2.9 0 5.2-2.3 5.2-5.2 0-2.9-2.3-5.2-5.2-5.2-2.9 0-5.2 2.3-5.2 5.2zM216.8 80.5c-1.7.9-2.9 2.6-2.9 4.7 0 2.5 1.7 4.5 4 5.1l-1.1-9.8z"/><circle class="st0" cx="208.6" cy="74.7" r="5.2"/><path class="st0" d="M215.3 67.7l-.7-6.1c-.4.8-.7 1.6-.7 2.5 0 1.5.5 2.7 1.4 3.6zM203.4 53.7c0 2.9 2.3 5.2 5.2 5.2 2.5 0 4.6-1.8 5.1-4.2l-.4-3.3c-.8-1.8-2.6-3-4.7-3-2.9.1-5.2 2.4-5.2 5.3zM210.6 28c-.6-.3-1.3-.4-2-.4-2.9 0-5.2 2.3-5.2 5.2 0 2.9 2.3 5.2 5.2 5.2 1.1 0 2.2-.4 3.1-1l-1.1-9z"/><g><path class="st1" d="M201.8 137.5c10-22.6-17.1-67.4-50.2-67.6-29.7-.1-33 56.9-56.5 36.3-33.6-29.3-73.3 13.1-67.3 31.2h174z"/></g><g><path class="st2" d="M150 83.7c-.7 0-1.3-.5-1.5-1.2l-5-28.5-2.5-28.2c-.1-.8.5-1.6 1.4-1.6.8-.1 1.6.5 1.6 1.4l2.5 28.1 5 28.3c.1.8-.4 1.6-1.2 1.7h-.3z"/><path class="st2" d="M160.1 146.7l-29.5-.4-.1-38.4c-30.6-8.3-49.8-38.2-42.9-67.2C91 26.3 100 14.6 112.8 7.6c12.6-6.9 28.1-8.7 43.6-5 33 7.9 53.4 36.7 46.5 65.6-4.9 20.5-22 36.4-43.8 40.7l1 37.8zm-26.5-3.3l23.4.3-1-37.2 1.3-.2c21.2-3.8 38-19 42.7-38.7 6.5-27.3-12.9-54.5-44.2-62-14.7-3.5-29.4-1.9-41.4 4.7-12.1 6.6-20.5 17.6-23.7 31.1-6.6 27.8 12.1 56.4 41.8 63.9l1.1.3v37.8z"/><path class="st2" d="M144.2 46c-.5 0-1-.3-1.3-.7-.4-.7-.2-1.6.5-2.1l17.9-11c.7-.4 1.6-.2 2.1.5.4.7.2 1.6-.5 2.1l-17.9 11c-.3.1-.6.2-.8.2zM145.6 61.8h-.4l-19.9-5.2c-.8-.2-1.3-1-1.1-1.8.2-.8 1-1.3 1.8-1.1l19.9 5.2c.8.2 1.3 1 1.1 1.8-.2.6-.8 1.1-1.4 1.1zM148.1 73.5c-.5 0-1.1-.3-1.3-.8-.4-.7-.1-1.6.6-2l16.2-8.4c.7-.4 1.6-.1 2 .6.4.7.1 1.6-.6 2l-16.2 8.4c-.2.1-.5.2-.7.2z"/></g><g><path class="st2" d="M87.9 116.8c-.8 0-1.4-.6-1.5-1.4l-1.3-14.8v-8.2c0-.8.7-1.5 1.5-1.5s1.5.7 1.5 1.5v8.1l1.3 14.7c.1.8-.5 1.6-1.4 1.6h-.1z"/><path class="st2" d="M81.7 149.9L81 134c-12.7-3-22-16.4-22.5-27.2-.9-20 6.8-31.6 23.4-35.6 3.2-.8 6.4-1.1 9.6-1 .8 0 1.5.7 1.5 1.5s-.7 1.5-1.5 1.5c-2.9-.1-5.9.2-8.8.9-15 3.6-22 14.2-21.1 32.5.5 9.9 9.6 22.5 21.2 24.6l1.2.2.7 15 12.3-1.6-1.7-13.8 1.3-.3c13.2-3.3 23.1-14.6 24-27.3.1-.8.8-1.5 1.6-1.4.8.1 1.5.8 1.4 1.6-.9 13.8-10.9 25.6-25 29.7l1.6 14.2-18.5 2.4z"/><path class="st2" d="M86.6 102.7c-.2 0-.4 0-.6-.1l-9.7-4.4c-.8-.3-1.1-1.2-.7-2 .3-.8 1.2-1.1 2-.7l9.7 4.4c.8.3 1.1 1.2.7 2-.2.5-.8.8-1.4.8zM87.4 108.5c-.5 0-1-.3-1.3-.7-.4-.7-.2-1.6.5-2.1l8.6-5.3c.7-.4 1.6-.2 2.1.5.4.7.2 1.6-.5 2.1l-8.6 5.3c-.3.1-.5.2-.8.2z"/></g><g><path class="st3" d="M201.8 137.5c10-22.6-17.1-67.4-50.2-67.6-29.7-.1-33 56.9-56.5 36.3-33.6-29.3-73.3 13.1-67.3 31.2h174z"/></g><g><path class="st2" d="M156.4 2.7c-15.5-3.7-30.9-1.9-43.6 5-12.8 7-21.8 18.7-25.2 33.1-2.4 10-1.7 20.2 1.6 29.5-2.5.1-4.9.4-7.3 1-16.7 4-24.3 15.6-23.4 35.6.5 10.7 9.8 24.2 22.5 27.2l.7 15.9 18.4-2.4-1.6-14.2c13.4-3.9 23.1-14.8 24.8-27.8 2.3 1 4.8 1.8 7.3 2.5l.1 38.4 29.5.4-1-37.7C181 104.9 198.1 89 203 68.5c6.8-29.1-13.6-57.9-46.6-65.8zm-59.9 128l-1.3.3 1.5 13.9-12.3 1.6-.7-15-1.2-.2c-11.6-2.1-20.7-14.7-21.2-24.6-.8-18.3 6.1-28.9 21.1-32.5 2.6-.6 5.2-.9 7.8-.9 5.5 13.2 16.1 24.5 30 31-1 12.3-10.7 23.2-23.7 26.4zM200 67.6c-4.7 19.7-21.5 34.9-42.7 38.7l-1.3.2 1 37.2-23.4-.3-.1-37.7-1.1-.3c-29.7-7.5-48.5-36.1-41.8-63.9 3.2-13.5 11.6-24.6 23.7-31.1 12-6.5 26.7-8.2 41.4-4.7 31.4 7.4 50.8 34.6 44.3 61.9z"/><path class="st2" d="M163.6 62.2l-14.3 7.4-2.8-16-.7-8.4 17.1-10.6c.7-.4.9-1.4.5-2.1-.4-.7-1.4-.9-2.1-.5l-15.9 9.8-1.4-16.2c-.1-.8-.8-1.4-1.6-1.4-.8.1-1.4.8-1.4 1.6l2.5 28.1.8 4.4-18.2-4.8c-.8-.2-1.6.3-1.8 1.1-.2.8.3 1.6 1.1 1.8l19.5 5.1 1.8 10.1c-.1.3 0 .6.1 1l1.7 9.8c.1.7.8 1.2 1.5 1.2h.3c.8-.1 1.4-.9 1.2-1.7l-1.6-9.2 15.1-7.8c.7-.4 1-1.3.6-2-.4-.8-1.3-1-2-.7zM95.2 100.5l-6.7 4.1-.3-4v-8.1c0-.8-.7-1.5-1.5-1.5s-1.5.7-1.5 1.5V99l-7.6-3.5c-.8-.3-1.6 0-2 .7-.3.8 0 1.6.7 2l8.9 4.1 1.1 13.2c.1.8.7 1.4 1.5 1.4h.1c.8-.1 1.4-.8 1.4-1.6l-.6-7.3 8-4.9c.7-.4.9-1.4.5-2.1-.4-.7-1.3-1-2-.5z"/></g></svg>