<?xml version="1.0" encoding="utf-8"?>
<!-- Generator: Adobe Illustrator 17.1.0, SVG Export Plug-In . SVG Version: 6.00 Build 0)  -->
<!DOCTYPE svg PUBLIC "-//W3C//DTD SVG 1.1//EN" "http://www.w3.org/Graphics/SVG/1.1/DTD/svg11.dtd">
<svg version="1.1" xmlns="http://www.w3.org/2000/svg" xmlns:xlink="http://www.w3.org/1999/xlink" x="0px" y="0px"
	 viewBox="0 0 90 90" style="enable-background:new 0 0 90 90;" xml:space="preserve">
<style type="text/css">
	.st0{fill:#959595;}
	.st1{fill:#D0D0D0;}
	.st2{fill:#373737;}
	.st3{fill:none;stroke:#959595;stroke-width:4;stroke-linecap:square;stroke-miterlimit:10;}
	.st4{fill:#FFFFFF;}
</style>
<g id="Layer_1">
	<g>
		<path class="st1" d="M81.4,66.5L81.4,66.5C81.5,60.2,76.3,55,70,55H22.3l1.9-6H80L90,7H16.1l-1.7-7H0v6h9.7l1.4,5.7l0,0l8,33.5
			L12.6,66c-0.2,0-0.4,0-0.6,0C5.4,66,0,71.4,0,78c0,6.6,5.4,12,12,12c6.6,0,12-5.4,12-12c0-4.3-2.3-8.1-5.7-10.2l2.1-6.8H70
			c3,0,5.4,2.3,5.5,5.3c-5.4,1.2-9.5,6-9.5,11.7c0,6.6,5.4,12,12,12c6.6,0,12-5.4,12-12C90,72.6,86.4,68,81.4,66.5z M12,84
			c-3.3,0-6-2.7-6-6s2.7-6,6-6c3.3,0,6,2.7,6,6S15.3,84,12,84z M82.4,13l-7.1,30H24.7l-7.1-30H82.4z M78,84c-3.3,0-6-2.7-6-6
			s2.7-6,6-6c3.3,0,6,2.7,6,6S81.3,84,78,84z"/>
		<path class="st1" d="M37,37c1.7,0,3-1.3,3-3V22c0-1.7-1.3-3-3-3c-1.7,0-3,1.3-3,3v12C34,35.7,35.3,37,37,37z"/>
		<path class="st1" d="M50,37c1.7,0,3-1.3,3-3V22c0-1.7-1.3-3-3-3c-1.7,0-3,1.3-3,3v12C47,35.7,48.3,37,50,37z"/>
		<path class="st1" d="M63,37c1.7,0,3-1.3,3-3V22c0-1.7-1.3-3-3-3c-1.7,0-3,1.3-3,3v12C60,35.7,61.3,37,63,37z"/>
	</g>
</g>
<g id="Layer_2">
</g>
</svg>
