<svg id="Layer_1" xmlns="http://www.w3.org/2000/svg" width="220" height="150" viewBox="0 0 220 150"><style>.st0{fill:#FFEBB2;} .st1{fill:#73E8CC;} .st2{fill:#737373;}</style><path class="st0" d="M37.3 10l5.4 5.4c2.6-.8 4.1-3.5 3.5-6.2-.2-.9-.6-1.6-1.1-2.2h-.5l-7.3 3zM62.7 10.7c2.6-.6 4.3-3.1 4-5.8l-10.4 1c0 .3 0 .6.1.9.7 2.8 3.5 4.6 6.3 3.9zM84.1 3.3l-6.4.6c1.2 1.7 3.3 2.5 5.4 2 1.2-.3 2.2-1 2.9-1.9-1.2-.5-1.9-.7-1.9-.7zM52.5 13.1c-2.8.7-4.6 3.5-3.9 6.3.7 2.8 3.5 4.6 6.3 3.9 2.8-.7 4.6-3.5 3.9-6.3-.7-2.8-3.5-4.6-6.3-3.9zM61.2 27.2c.7 2.8 3.5 4.6 6.3 3.9 2.8-.7 4.6-3.5 3.9-6.3-.7-2.8-3.5-4.6-6.3-3.9-2.8.6-4.5 3.5-3.9 6.3zM72.9 8.3c-2.8.7-4.6 3.5-3.9 6.3s3.5 4.6 6.3 3.9c2.8-.7 4.6-3.5 3.9-6.3-.7-2.8-3.5-4.6-6.3-3.9zM85.5 16.1c-2.8.7-4.6 3.5-3.9 6.3.7 2.8 3.5 4.6 6.3 3.9 2.8-.7 4.6-3.5 3.9-6.3-.7-2.9-3.5-4.6-6.3-3.9zM95.7 13.7c2.2-.5 3.8-2.4 4-4.6-3.4-1.2-6.7-2.5-9.5-3.5-.8 1.2-1.2 2.7-.8 4.2.6 2.8 3.5 4.5 6.3 3.9zM102 17.6c.7 2.8 3.5 4.6 6.3 3.9 2.8-.7 4.6-3.5 3.9-6.3-.2-.9-.6-1.6-1.2-2.2-1.5-.4-3.2-1-5.2-1.7-2.8.6-4.5 3.4-3.8 6.3zM128.6 16.6c2.2-.5 3.7-2.4 4-4.5l-10.2.9c.9 2.7 3.5 4.3 6.2 3.6zM75.9 48.4c.4-1 .6-2.1.3-3.3-.7-2.8-3.5-4.6-6.3-3.9l-.9.3 6.9 6.9zM77.7 28.7c-2.8.7-4.6 3.5-3.9 6.3.7 2.8 3.5 4.6 6.3 3.9 2.8-.7 4.6-3.5 3.9-6.3-.7-2.9-3.5-4.6-6.3-3.9zM86.4 42.7c.7 2.8 3.5 4.6 6.3 3.9 2.8-.7 4.6-3.5 3.9-6.3-.7-2.8-3.5-4.6-6.3-3.9-2.8.7-4.6 3.5-3.9 6.3zM98.1 23.9c-2.8.7-4.6 3.5-3.9 6.3.7 2.8 3.5 4.6 6.3 3.9 2.8-.7 4.6-3.5 3.9-6.3-.7-2.9-3.5-4.6-6.3-3.9zM106.8 37.9c.7 2.8 3.5 4.6 6.3 3.9 2.8-.7 4.6-3.5 3.9-6.3-.7-2.8-3.5-4.6-6.3-3.9-2.8.7-4.6 3.5-3.9 6.3z"/><ellipse transform="rotate(-13.28 119.646 24.14)" class="st0" cx="119.7" cy="24.1" rx="5.2" ry="5.2"/><path class="st0" d="M133.5 37c2.8-.7 4.6-3.5 3.9-6.3-.7-2.8-3.5-4.6-6.3-3.9-2.8.7-4.6 3.5-3.9 6.3.6 2.8 3.4 4.6 6.3 3.9zM138.8 14.2c-2.8.7-4.6 3.5-3.9 6.3.7 2.8 3.5 4.6 6.3 3.9 2.7-.6 4.4-3.2 3.9-5.9l-5.1-4.4c-.3 0-.7 0-1.2.1zM147.5 28.3c.7 2.8 3.5 4.6 6.3 3.9 1.7-.4 3-1.6 3.6-3.1l-7.5-6.5c-1.9 1.2-2.9 3.4-2.4 5.7zM82.5 49c-1.5.4-2.7 1.3-3.4 2.6l7.1 7.1c2-1.1 3.2-3.4 2.6-5.8-.7-2.8-3.5-4.5-6.3-3.9zM91.2 63.1l.3.9 2.7 2.7c1 .4 2.1.6 3.3.3 2.8-.7 4.6-3.5 3.9-6.3-.7-2.8-3.5-4.6-6.3-3.9-2.8.7-4.6 3.5-3.9 6.3zM102.9 44.2c-2.8.7-4.6 3.5-3.9 6.3.7 2.8 3.5 4.6 6.3 3.9 2.8-.7 4.6-3.5 3.9-6.3-.7-2.8-3.5-4.5-6.3-3.9zM111.6 58.3c.7 2.8 3.5 4.6 6.3 3.9 2.8-.7 4.6-3.5 3.9-6.3-.7-2.8-3.5-4.6-6.3-3.9s-4.6 3.5-3.9 6.3zM123.3 39.4c-2.8.7-4.6 3.5-3.9 6.3.7 2.8 3.5 4.6 6.3 3.9 2.8-.7 4.6-3.5 3.9-6.3-.7-2.8-3.5-4.5-6.3-3.9zM132 53.5c.7 2.8 3.5 4.6 6.3 3.9 2.8-.7 4.6-3.5 3.9-6.3-.7-2.8-3.5-4.6-6.3-3.9-2.9.7-4.6 3.5-3.9 6.3zM143.6 34.6c-2.8.7-4.6 3.5-3.9 6.3.7 2.8 3.5 4.6 6.3 3.9 2.8-.7 4.6-3.5 3.9-6.3-.6-2.8-3.4-4.5-6.3-3.9zM162.5 46.3c-.7-2.8-3.5-4.6-6.3-3.9-2.8.7-4.6 3.5-3.9 6.3.7 2.8 3.5 4.6 6.3 3.9 2.8-.7 4.6-3.5 3.9-6.3zM166.4 40c1-.2 1.8-.7 2.5-1.4l-2.3-1.6-5.7-5c-.7 1.2-1 2.6-.7 4 .6 2.9 3.4 4.7 6.2 4zM172.8 41.2c-.2.8-.3 1.7-.1 2.7.7 2.8 3.5 4.6 6.3 3.9.8-.2 1.5-.5 2-1l-8.2-5.6zM110.1 74.8c2.8-.7 4.6-3.5 3.9-6.3-.7-2.8-3.5-4.6-6.3-3.9-2.8.7-4.6 3.5-3.9 6.3.7 2.8 3.5 4.6 6.3 3.9zM116.4 78.7c.7 2.8 3.5 4.6 6.3 3.9 2.8-.7 4.6-3.5 3.9-6.3-.7-2.8-3.5-4.6-6.3-3.9-2.8.7-4.6 3.5-3.9 6.3zM128.1 59.8c-2.8.7-4.6 3.5-3.9 6.3.7 2.8 3.5 4.6 6.3 3.9 2.8-.7 4.6-3.5 3.9-6.3-.7-2.8-3.5-4.6-6.3-3.9zM147 71.5c-.7-2.8-3.5-4.6-6.3-3.9-2.8.7-4.6 3.5-3.9 6.3.7 2.8 3.5 4.6 6.3 3.9 2.8-.7 4.5-3.5 3.9-6.3zM148.4 55c-2.8.7-4.6 3.5-3.9 6.3.7 2.8 3.5 4.6 6.3 3.9s4.6-3.5 3.9-6.3c-.6-2.8-3.4-4.6-6.3-3.9zM167.3 66.7c-.7-2.8-3.5-4.6-6.3-3.9-2.8.7-4.6 3.5-3.9 6.3.7 2.8 3.5 4.6 6.3 3.9 2.9-.7 4.6-3.5 3.9-6.3zM168.8 50.2c-2.8.7-4.6 3.5-3.9 6.3.7 2.8 3.5 4.6 6.3 3.9 2.8-.7 4.6-3.5 3.9-6.3-.6-2.8-3.5-4.6-6.3-3.9zM187.7 61.9c-.7-2.8-3.5-4.6-6.3-3.9-2.8.7-4.6 3.5-3.9 6.3.7 2.8 3.5 4.6 6.3 3.9 2.8-.7 4.6-3.5 3.9-6.3zM191.6 55.6c.8-.2 1.5-.6 2.1-1l-5.4-2.9-3-2c-.1.7-.1 1.4.1 2.1.6 2.7 3.4 4.4 6.2 3.8zM200.7 58.3l-2.7-1.5c-.2.8-.3 1.7-.1 2.6.7 2.8 3.5 4.6 6.3 3.9.4-.1.8-.2 1.1-.4l-4.6-4.6zM118.8 88.9c-.7-2.8-3.4-4.5-6.2-3.9l6.2 6.2c.2-.7.2-1.5 0-2.3zM131.4 96.7c-.7-2.8-3.5-4.6-6.3-3.9-1.2.3-2.2 1-2.9 1.8l7.3 7.3c1.6-1.2 2.4-3.2 1.9-5.2z"/><ellipse transform="rotate(-13.28 134.07 85.263)" class="st0" cx="134.1" cy="85.3" rx="5.2" ry="5.2"/><path class="st0" d="M151.8 91.9c-.7-2.8-3.5-4.6-6.3-3.9-2.8.7-4.6 3.5-3.9 6.3.7 2.8 3.5 4.6 6.3 3.9 2.8-.7 4.5-3.5 3.9-6.3zM153.3 75.4c-2.8.7-4.6 3.5-3.9 6.3s3.5 4.6 6.3 3.9c2.8-.7 4.6-3.5 3.9-6.3-.7-2.9-3.5-4.6-6.3-3.9zM172.1 87c-.7-2.8-3.5-4.6-6.3-3.9-2.8.7-4.6 3.5-3.9 6.3.7 2.8 3.5 4.6 6.3 3.9 2.9-.6 4.6-3.4 3.9-6.3zM173.6 70.6c-2.8.7-4.6 3.5-3.9 6.3.7 2.8 3.5 4.6 6.3 3.9 2.8-.7 4.6-3.5 3.9-6.3-.6-2.9-3.5-4.6-6.3-3.9zM192.5 82.2c-.7-2.8-3.5-4.6-6.3-3.9-2.8.7-4.6 3.5-3.9 6.3.7 2.8 3.5 4.6 6.3 3.9 2.8-.6 4.6-3.5 3.9-6.3zM194 65.7c-2.8.7-4.6 3.5-3.9 6.3.7 2.8 3.5 4.6 6.3 3.9 2.8-.7 4.6-3.5 3.9-6.3-.7-2.8-3.5-4.5-6.3-3.9zM206.6 73.5c-2.8.7-4.6 3.5-3.9 6.3.4 1.5 1.3 2.7 2.6 3.4l6.8-7.5c-1.2-1.7-3.3-2.7-5.5-2.2zM213 70.6l-1.9-1.9c.4.8 1.1 1.4 1.9 1.9zM137.7 100.6c-2.5.6-4.2 3-4 5.5l4.8 4.8c.5 0 1 0 1.6-.1 2.8-.7 4.6-3.5 3.9-6.3-.7-2.9-3.5-4.6-6.3-3.9zM156.6 112.2c-.7-2.8-3.5-4.6-6.3-3.9-2.8.7-4.6 3.5-3.9 6.3.7 2.8 3.5 4.6 6.3 3.9 2.8-.6 4.5-3.5 3.9-6.3zM158.1 95.7c-2.8.7-4.6 3.5-3.9 6.3.7 2.8 3.5 4.6 6.3 3.9 2.8-.7 4.6-3.5 3.9-6.3-.7-2.8-3.5-4.5-6.3-3.9zM177 107.4c-.7-2.8-3.5-4.6-6.3-3.9-2.8.7-4.6 3.5-3.9 6.3.7 2.8 3.5 4.6 6.3 3.9 2.8-.6 4.5-3.5 3.9-6.3zM180.8 101.1c2.8-.7 4.6-3.5 3.9-6.3-.7-2.8-3.5-4.6-6.3-3.9-2.8.7-4.6 3.5-3.9 6.3s3.5 4.6 6.3 3.9zM191.3 98.7h-.3c-2.3.5-3.8 2.5-4 4.6l4.3-4.6zM198.8 86.1c-2.8.7-4.6 3.5-3.9 6.3.1.6.4 1.1.7 1.5l6.7-7.4c-1-.5-2.3-.7-3.5-.4zM156.3 128.6l4 4 .8-.8c-.8-1.9-2.7-3.2-4.8-3.2zM162.9 116.1c-2.8.7-4.6 3.5-3.9 6.3.7 2.8 3.5 4.6 6.3 3.9 2.8-.7 4.6-3.5 3.9-6.3-.7-2.8-3.5-4.5-6.3-3.9z"/><g><path class="st1" d="M152.7 95.6S139.6 35.8 89.9 47c-36.8 8.3-50 41.3-43.1 57.5 12.9 30.1 38.5 10.4 58.6 28.4 24.6 22 58.8 11.7 47.3-37.3z"/></g><path class="st2" d="M189.3 21.7c0-.1-.1-.1-.1-.2-.2-.3-.4-.4-.7-.5-.1-.1-.3-.1-.4-.1h-.4l-59.4 8.4c-.1 0-.2.1-.4.1L75 51.2c-.5.2-.9.7-.9 1.2s.2 1.1.6 1.4l23.5 16-2.6 23.5v.4c0 .2.1.3.2.5l.1.1c.1.1.1.2.2.3 0 0 .1.1.2.1s.1.1.2.1h.2c.1 0 .3.1.5.1h.3l25.3-4.6 23.1 23.6c.3.3.7.5 1.1.5.2 0 .3 0 .5-.1l11.9-3.8c.5-.1.8-.5 1-.9l29.4-86.8c0-.1.1-.2.1-.3-.4-.2-.4-.5-.6-.8zm-60.4 10.6l50.8-7.2-79.9 42.3-21.1-14.5 50.2-20.6zm-17.3 44.5l-.1.1L99 89.4l2.2-19.3 69.3-36.7L140.9 55l-29.3 21.8zm-10.1 14.4l11-11 7.5 7.7-18.5 3.3zm55.9 16.8l-10.3 3.3-32.4-33.1 27.9-20.8 42.3-31-27.5 81.6z"/><g><path class="st2" d="M90 136.5c-.5 0-1-.3-1.3-.7-.4-.7-.2-1.6.5-2.1l30.6-18.2c.7-.4 1.6-.2 2.1.5.4.7.2 1.6-.5 2.1l-30.6 18.2c-.3.2-.5.2-.8.2z"/></g><g><path class="st2" d="M52.4 136c-.5 0-.9-.2-1.2-.6-.5-.7-.3-1.6.4-2.1l33-23.3c.7-.5 1.6-.3 2.1.4s.3 1.6-.4 2.1l-33.1 23.2c-.2.2-.5.3-.8.3z"/></g><g><path class="st2" d="M46.1 102.9c-.5 0-1.1-.3-1.3-.8-.4-.7-.1-1.6.6-2l35.6-19c.7-.4 1.6-.1 2 .6.4.7.1 1.6-.6 2l-35.6 19c-.2.2-.5.2-.7.2z"/></g></svg>