<?xml version="1.0" encoding="UTF-8"?>
<svg width="364px" height="178px" viewBox="0 0 364 178" version="1.1" xmlns="http://www.w3.org/2000/svg" xmlns:xlink="http://www.w3.org/1999/xlink">
    <!-- Generator: Sketch 43.2 (39069) - http://www.bohemiancoding.com/sketch -->
    <title>explore</title>
    <desc>Created with Sketch.</desc>
    <defs>
        <path d="M176.4497,31.6866587 C107.503661,83.3452777 85.1869171,66.2637704 81.0138674,50.1139817 C69.0390291,2.69985844 -28.5740466,79.4113548 8.25765295,115.851904 C35.1103206,142.354121 115.668324,84.2769963 142.158117,129.517109 C168.647911,174.757223 235.416707,81.8959377 307.447173,126.721954 C377.300397,170.202154 378.933329,71.1294119 331.578287,27.1315901 C331.578287,27.1315901 267.712483,-36.846419 176.4497,31.6866587 Z" id="path-1"></path>
    </defs>
    <g id="Page-1" stroke="none" stroke-width="1" fill="none" fill-rule="evenodd">
        <g id="explore" transform="translate(0.000000, -1.000000)">
            <g id="Combined-Shape" transform="translate(0.000000, 36.695000)">
                <mask id="mask-2" fill="white">
                    <use xlink:href="#path-1"></use>
                </mask>
                <use id="Mask-Copy" fill="#DECEF3" style="mix-blend-mode: multiply;" transform="translate(182.000000, 71.152500) scale(1, -1) translate(-182.000000, -71.152500) " xlink:href="#path-1"></use>
            </g>
            <g id="Group-11-Copy-4" transform="translate(116.751538, 26.245000)">
                <ellipse id="Oval-3-Copy" fill="#FFFFFF" cx="23.8339483" cy="24.3225" rx="22.8339483" ry="22.8225"></ellipse>
                <path d="M24.2484625,47.755 C10.8818115,47.755 0.248462485,37.1218748 0.248462485,24.255 C0.248462485,10.8881252 10.8818115,0.255 24.2484625,0.255 C37.1151135,0.255 47.7484625,10.8881252 47.7484625,24.255 C47.7484625,37.1218748 37.1151135,47.755 24.2484625,47.755 Z M24.2484625,45.755 C36.0107676,45.755 45.7484625,36.0170814 45.7484625,24.255 C45.7484625,11.9929186 36.0107676,2.255 24.2484625,2.255 C11.9861574,2.255 2.24846248,11.9929186 2.24846248,24.255 C2.24846248,36.0170814 11.9861574,45.755 24.2484625,45.755 Z" id="Oval-3-Copy-2" fill="#484848" fill-rule="nonzero"></path>
                <path d="M44.1076334,34.3194752 L36.0962923,30.7911171 C35.5945538,30.5701412 35.0071318,30.7942638 34.7842487,31.291709 C34.5613656,31.7891542 34.7874226,32.3715496 35.2891612,32.5925255 L43.3005023,36.1208835 C43.8022409,36.3418594 44.3896628,36.1177368 44.6125459,35.6202916 C44.835429,35.1228464 44.609372,34.5404511 44.1076334,34.3194752 Z" id="Line" fill="#484848" fill-rule="nonzero"></path>
                <path d="M38.7386684,39.5549193 L28.2356747,35.4748811 C27.7245118,35.2763126 27.1427013,35.5137336 26.9361646,36.0051759 C26.7296278,36.4966182 26.9765762,37.0559824 27.4877391,37.254551 L37.9907328,41.3345891 C38.5018957,41.5331577 39.0837062,41.2957366 39.290243,40.8042944 C39.4967797,40.3128521 39.2498314,39.7534878 38.7386684,39.5549193 Z" id="Line-Copy-3" fill="#484848" fill-rule="nonzero"></path>
                <path d="M32.2918964,43.9644563 L23.2604257,40.8317524 C22.7500325,40.6547147 22.1849789,40.903675 21.9983433,41.3878208 C21.8117077,41.8719667 22.0741651,42.4079619 22.5845583,42.5849996 L31.616029,45.7177036 C32.1264223,45.8947413 32.6914758,45.645781 32.8781114,45.1616351 C33.0647471,44.6774893 32.8022896,44.1414941 32.2918964,43.9644563 Z" id="Line-Copy-4" fill="#484848" fill-rule="nonzero"></path>
                <path d="M8.81624923,7.97022605 L31.8381551,19.9815897 C32.3228884,20.2344926 32.9197738,20.0444628 33.171336,19.5571462 C33.4228983,19.0698295 33.2338758,18.469763 32.7491425,18.2168601 L9.72723666,6.20549641 C9.24250341,5.95259348 8.64561798,6.14262333 8.39405575,6.62993997 C8.14249351,7.11725661 8.33151598,7.71732312 8.81624923,7.97022605 Z" id="Line" fill="#484848" fill-rule="nonzero"></path>
                <path d="M4.34721515,14.2109483 L21.3715147,22.7527919 C21.8581658,22.9969663 22.4523905,22.8039033 22.6987526,22.3215735 C22.9451146,21.8392438 22.7503218,21.2502958 22.2636707,21.0061214 L5.23937115,12.4642778 C4.75271998,12.2201034 4.15849534,12.4131665 3.91213326,12.8954962 C3.66577118,13.377826 3.86056398,13.9667739 4.34721515,14.2109483 Z" id="Line-Copy" fill="#484848" fill-rule="nonzero"></path>
                <path d="M1.19447608,20.9531102 L20.7327734,31.4553694 C21.2117471,31.7128282 21.8049786,31.5261217 22.0577929,31.0383488 C22.3106073,30.550576 22.1272689,29.9464464 21.6482952,29.6889876 L2.10999785,19.1867284 C1.63102414,18.9292697 1.0377927,19.1159761 0.784978344,19.603749 C0.53216399,20.0915219 0.715502372,20.6956515 1.19447608,20.9531102 Z" id="Line-Copy-2" fill="#484848" fill-rule="nonzero"></path>
            </g>
            <g id="Group-13-Copy-5" transform="translate(302.504920, 64.782500)">
                <path d="M18.49508,34.7175 C29.63508,34.7175 34.99508,27.2182696 34.99508,18.2175 C34.99508,8.71673044 27.4958495,1.2175 18.49508,1.2175 C8.99431039,1.2175 1.49507995,8.71673044 1.49507995,18.2175 C1.49507995,27.2182696 6.85507995,34.7175 18.49508,34.7175 Z" id="Oval-3-Copy-3" fill="#FFFFFF"></path>
                <path d="M18.49508,35.7175 C7.09987032,35.7175 0.495079951,28.6285069 0.495079951,18.2175 C0.495079951,8.16444569 8.44202564,0.2175 18.49508,0.2175 C28.1293273,0.2175 35.99508,8.24712778 35.99508,18.2175 C35.99508,28.5581474 29.4738938,35.7175 18.49508,35.7175 Z M18.49508,33.7175 C28.325498,33.7175 33.99508,27.4930899 33.99508,18.2175 C33.99508,9.34257208 27.0154221,2.2175 18.49508,2.2175 C9.54659514,2.2175 2.49507995,9.26901519 2.49507995,18.2175 C2.49507995,27.5543166 8.23729665,33.7175 18.49508,33.7175 Z" id="Oval-3-Copy-4" fill="#484848" fill-rule="nonzero"></path>
                <path d="M23.49508,17.7175 C24.7640915,17.7175 25.99508,16.4860542 25.99508,15.2175 C25.99508,13.4489458 24.7640915,12.2175 23.49508,12.2175 C21.7260684,12.2175 20.49508,13.4489458 20.49508,15.2175 C20.49508,16.4860542 21.7260684,17.7175 23.49508,17.7175 Z M22.99508,19.7175 C20.6217274,19.7175 18.49508,17.5908526 18.49508,15.2175 C18.49508,12.3441474 20.6217274,10.2175 22.99508,10.2175 C25.8684325,10.2175 27.99508,12.3441474 27.99508,15.2175 C27.99508,17.5908526 25.8684325,19.7175 22.99508,19.7175 Z" id="Oval-5" fill="#484848" fill-rule="nonzero"></path>
                <path d="M17.99508,25.2175 C17.4432071,25.2175 16.99508,25.7766295 16.99508,26.7175 C16.99508,27.1583705 17.4432071,27.7175 17.99508,27.7175 C18.5469528,27.7175 18.99508,27.1583705 18.99508,26.7175 C18.99508,25.7766295 18.5469528,25.2175 17.99508,25.2175 Z M17.99508,29.2175 C16.3382257,29.2175 14.99508,27.8743542 14.99508,26.2175 C14.99508,24.5606458 16.3382257,23.2175 17.99508,23.2175 C19.6519342,23.2175 20.99508,24.5606458 20.99508,26.2175 C20.99508,27.8743542 19.6519342,29.2175 17.99508,29.2175 Z" id="Oval-5-Copy" fill="#484848" fill-rule="nonzero"></path>
                <circle id="Oval-5-Copy-2" fill="#484848" cx="9.99507995" cy="17.2175" r="3"></circle>
            </g>
            <path d="M230.130381,122.1675 C253.621164,122.1675 272.664207,107.8475 272.664207,79.655 C272.664207,51.4625 253.621164,37.1425 230.130381,37.1425 C206.639598,37.1425 187.596556,56.1759946 187.596556,79.655 C187.596556,103.134005 206.639598,122.1675 230.130381,122.1675 Z" id="Oval-3-Copy-253" fill="#FFFFFF"></path>
            <path d="M230,123 C205.975613,123 186.5,103.524387 186.5,79.5 C186.5,55.4756134 205.975613,36 230,36 C255.76978,36 273.5,52.3723531 273.5,79.5 C273.5,106.627647 255.76978,123 230,123 Z M230,121 C254.69923,121 271.5,105.485915 271.5,79.5 C271.5,53.5140846 254.69923,38 230,38 C207.080183,38 188.5,56.5801829 188.5,79.5 C188.5,102.419817 207.080183,121 230,121 Z" id="Oval-3-Copy-253" fill="#484848" fill-rule="nonzero"></path>
            <path d="M198.659176,52.5868641 C198.494274,52.1686567 198.40724,51.9360929 198.312893,51.6723543 C198.040598,50.9111835 197.767332,50.0597008 197.512165,49.1419209 C196.782295,46.5167402 196.349053,43.9002465 196.356983,41.5043607 C196.367205,38.4157557 197.113638,35.9794077 198.674522,34.3370868 C200.665146,32.2426063 207.457174,34.5912734 215.862014,41.2273985 C225.365305,48.7308165 235.131889,60.1127752 242.398997,72.699775 C257.619201,99.0619422 261.970099,124.912816 253.228195,129.959957 C248.860502,132.481646 241.075544,129.480442 232.076493,121.428899 L230.742926,122.919401 C240.044795,131.241879 248.724786,134.869403 254.228195,131.692008 C264.392741,125.823505 259.872094,98.9640671 244.131047,71.699775 C228.390001,44.4354829 203.428404,26.4320315 197.224823,32.9592725 C191.021243,39.4865135 196.813627,53.3575444 196.813627,53.3575444 L198.659176,52.5868641 Z M198.659176,52.5868641 C198.494274,52.1686567 198.40724,51.9360929 198.312893,51.6723543 C198.040598,50.9111835 197.767332,50.0597008 197.512165,49.1419209 C196.782295,46.5167402 196.349053,43.9002465 196.356983,41.5043607 C196.367205,38.4157557 197.113638,35.9794077 198.674522,34.3370868 C200.665146,32.2426063 207.457174,34.5912734 215.862014,41.2273985 C225.365305,48.7308165 235.131889,60.1127752 242.398997,72.699775 C257.619201,99.0619422 261.970099,124.912816 253.228195,129.959957 C248.860502,132.481646 241.075544,129.480442 232.076493,121.428899 L230.742926,122.919401 C240.044795,131.241879 248.724786,134.869403 254.228195,131.692008 C264.392741,125.823505 259.872094,98.9640671 244.131047,71.699775 C228.390001,44.4354829 203.428404,26.4320315 197.224823,32.9592725 C191.021243,39.4865135 196.813627,53.3575444 196.813627,53.3575444 L198.659176,52.5868641 Z" id="Oval-4-Copy-2" fill="#484848" fill-rule="nonzero"></path>
            <g id="Group" transform="translate(27.154367, 52.252500)">
                <circle id="Oval-3-Copy-252" fill="#FFFFFF" cx="28.0956335" cy="27.9975" r="26.75"></circle>
                <path d="M0.345633456,28.2475 C0.345633456,12.6715982 12.7697316,0.2475 28.3456335,0.2475 C43.5012642,0.2475 55.8456335,12.7522841 55.8456335,28.2475 C55.8456335,43.3234018 43.4215353,55.7475 28.3456335,55.7475 C12.8504176,55.7475 0.345633456,43.4031308 0.345633456,28.2475 Z M53.8456335,28.2475 C53.8456335,13.8511147 42.3908732,2.2475 28.3456335,2.2475 C13.8743011,2.2475 2.34563346,13.7761677 2.34563346,28.2475 C2.34563346,42.2927398 13.9492481,53.7475 28.3456335,53.7475 C42.3169658,53.7475 53.8456335,42.2188323 53.8456335,28.2475 Z" id="Oval-3-Copy-254" fill="#484848" fill-rule="nonzero"></path>
                <path d="M35.3746218,12.5265479 C35.2979354,12.4870142 35.1612028,12.3432949 35.0849651,12.1038109 C35.0572532,12.0167598 35.0495552,11.929055 35.0576318,11.8595981 C35.0599433,11.8397191 35.057241,11.8488261 35.0405143,11.8855076 C34.9841057,12.0092111 34.8779266,12.1722298 34.7214751,12.3676287 C35.0456633,12.4115056 35.2710773,12.4731682 35.3746218,12.5265479 Z M11.7722938,25.8717145 C11.7633325,25.862892 11.6311944,25.8078569 11.4981169,25.8117541 C11.5217353,25.8110624 11.5707821,25.791648 11.6605988,25.7413799 C11.7002535,25.7941799 11.7375941,25.8375522 11.7722938,25.8717145 Z M31.4141123,12.4380335 C30.5092446,12.5367738 29.5380392,12.6842042 28.5382098,12.8673623 C27.8514757,12.9931647 27.1927827,13.1281119 26.5870146,13.2628477 C26.3760061,13.3097806 26.1872073,13.3532042 26.0236764,13.3919476 C25.9279437,13.4146284 25.8634749,13.4303111 25.8333097,13.4378251 C24.7614919,13.7048091 23.6761787,13.0523624 23.4091946,11.9805447 C23.2780352,11.454 23.3687708,10.9241983 23.6221137,10.4897618 L25.3498924,11.4971274 C25.3498924,11.4971274 36.1354639,8.81049975 36.9907288,11.4971274 C37.8459936,14.183755 29.8642891,18.0019624 28.4839637,21.3421274 C27.1036383,24.6822923 34.5506967,30.8129827 28.4839637,32.0821274 C25.795936,32.6444557 21.9032445,26.9405354 18.1863007,25.3696274 C14.4693569,23.7987193 11.7165879,31.5784547 9.23181119,25.3696274 C6.74703444,19.1608 9.40063437,10.0366247 11.0227091,7.46962735 C12.6447838,4.90263003 16.9795803,7.5219699 19.9771986,8.36462735 L21.7053957,9.37223684 C21.2577598,10.1412238 20.3322983,10.541969 19.4359591,10.29 C18.7311552,10.0918733 18.3546766,9.95583266 16.7793081,9.35821204 C16.4693923,9.24064455 16.2474104,9.15748766 16.029943,9.07801515 C14.7800173,8.62123539 13.9436526,8.39825361 13.3288568,8.37231717 C12.9054766,8.354456 12.8015724,8.39853123 12.713445,8.53799622 C11.9634777,9.72484919 11.030401,12.5224273 10.5606791,15.3785084 C9.97759358,18.9238822 10.117025,22.1987151 11.0886361,24.6265248 C11.3026817,25.1613707 11.5005008,25.5282105 11.6605988,25.7413799 C11.8555477,25.632272 12.2425704,25.3778077 12.9785451,24.8539406 C13.9553565,24.1586459 14.5835034,23.7776397 15.3709348,23.4872042 C16.5625358,23.0476951 17.7745591,23.0243261 18.9648891,23.5274004 C19.5387261,23.7699236 20.1147271,24.0869423 20.7092367,24.4772178 C21.6765108,25.1122006 22.5569992,25.8290374 23.9385678,27.0491984 C26.7129423,29.4994449 27.7246857,30.1976714 28.0744342,30.1245049 C28.3802682,30.0605253 28.6158194,29.9850937 28.7838094,29.905748 C28.8838609,29.8584913 28.9347595,29.823306 28.951618,29.8059466 C28.8900761,29.3826155 28.6287104,28.710591 27.8040751,27.0082396 C27.7208167,26.8363635 27.6650728,26.7208633 27.6083351,26.602381 C26.3148298,23.9012225 25.9016392,22.3542887 26.635576,20.5782799 C27.1532236,19.3256561 28.147872,18.1830917 29.7316583,16.7832497 C30.1966407,16.3722714 30.6572683,15.9853424 31.3986454,15.3759702 C33.3129193,13.8025394 33.8453843,13.342042 34.4417839,12.6920542 C34.5482195,12.5760551 34.6414275,12.4676036 34.7214751,12.3676287 C33.901742,12.2612363 32.7708883,12.2899803 31.4141123,12.4380335 Z M11.4981169,25.8117541 C11.6311944,25.8078569 11.7633325,25.862892 11.7722938,25.8717145 C11.7375941,25.8375522 11.7002535,25.7941799 11.6605988,25.7413799 C11.5707821,25.791648 11.5217353,25.8110624 11.4981169,25.8117541 Z M35.3746218,12.5265479 C35.2979354,12.4870142 35.1612028,12.3432949 35.0849651,12.1038109 C35.0572532,12.0167598 35.0495552,11.929055 35.0576318,11.8595981 C35.0599433,11.8397191 35.057241,11.8488261 35.0405143,11.8855076 C34.9841057,12.0092111 34.8779266,12.1722298 34.7214751,12.3676287 C35.0456633,12.4115056 35.2710773,12.4731682 35.3746218,12.5265479 Z M12.9785451,24.8539406 C13.9553565,24.1586459 14.5835034,23.7776397 15.3709348,23.4872042 C16.5625358,23.0476951 17.7745591,23.0243261 18.9648891,23.5274004 C19.5387261,23.7699236 20.1147271,24.0869423 20.7092367,24.4772178 C21.6765108,25.1122006 22.5569992,25.8290374 23.9385678,27.0491984 C26.7129423,29.4994449 27.7246857,30.1976714 28.0744342,30.1245049 C28.3802682,30.0605253 28.6158194,29.9850937 28.7838094,29.905748 C28.8838609,29.8584913 28.9347595,29.823306 28.951618,29.8059466 C28.8900761,29.3826155 28.6287104,28.710591 27.8040751,27.0082396 C27.7208167,26.8363635 27.6650728,26.7208633 27.6083351,26.602381 C26.3148298,23.9012225 25.9016392,22.3542887 26.635576,20.5782799 C27.1532236,19.3256561 28.147872,18.1830917 29.7316583,16.7832497 C30.1966407,16.3722714 30.6572683,15.9853424 31.3986454,15.3759702 C33.3129193,13.8025394 33.8453843,13.342042 34.4417839,12.6920542 C34.5482195,12.5760551 34.6414275,12.4676036 34.7214751,12.3676287 C33.901742,12.2612363 32.7708883,12.2899803 31.4141123,12.4380335 C30.5092446,12.5367738 29.5380392,12.6842042 28.5382098,12.8673623 C27.8514757,12.9931647 27.1927827,13.1281119 26.5870146,13.2628477 C26.3760061,13.3097806 26.1872073,13.3532042 26.0236764,13.3919476 C25.9279437,13.4146284 25.8634749,13.4303111 25.8333097,13.4378251 C24.7614919,13.7048091 23.6761787,13.0523624 23.4091946,11.9805447 C23.2780352,11.454 23.3687708,10.9241983 23.6221137,10.4897618 L25.3498924,11.4971274 C25.3498924,11.4971274 36.1354639,8.81049975 36.9907288,11.4971274 C37.8459936,14.183755 29.8642891,18.0019624 28.4839637,21.3421274 C27.1036383,24.6822923 34.5506967,30.8129827 28.4839637,32.0821274 C25.795936,32.6444557 21.9032445,26.9405354 18.1863007,25.3696274 C14.4693569,23.7987193 11.7165879,31.5784547 9.23181119,25.3696274 C6.74703444,19.1608 9.40063437,10.0366247 11.0227091,7.46962735 C12.6447838,4.90263003 16.9795803,7.5219699 19.9771986,8.36462735 L21.7053957,9.37223684 C21.2577598,10.1412238 20.3322983,10.541969 19.4359591,10.29 C18.7311552,10.0918733 18.3546766,9.95583266 16.7793081,9.35821204 C16.4693923,9.24064455 16.2474104,9.15748766 16.029943,9.07801515 C14.7800173,8.62123539 13.9436526,8.39825361 13.3288568,8.37231717 C12.9054766,8.354456 12.8015724,8.39853123 12.713445,8.53799622 C11.9634777,9.72484919 11.030401,12.5224273 10.5606791,15.3785084 C9.97759358,18.9238822 10.117025,22.1987151 11.0886361,24.6265248 C11.3026817,25.1613707 11.5005008,25.5282105 11.6605988,25.7413799 C11.8555477,25.632272 12.2425704,25.3778077 12.9785451,24.8539406 Z" id="Path-4-Copy-5" fill="#484848" fill-rule="nonzero"></path>
                <path d="M11.0889997,47.4856116 C11.1036152,47.3885953 11.1342627,47.1965523 11.1806684,46.9232533 C11.2589412,46.4622789 11.3524586,45.9472641 11.4609005,45.3920886 C11.7701088,43.8090771 12.1355309,42.2276565 12.5526413,40.7624982 C13.4656107,37.5555669 14.5754245,35.3830807 15.0843076,35.2229571 C15.2162843,35.1814297 15.8429763,35.9486429 17.0614617,38.5589367 C17.109293,38.661403 17.2736381,39.0143783 17.2831265,39.034736 C17.3725667,39.2266344 17.4412703,39.3733531 17.5085817,39.5158991 C18.6659967,41.9669686 19.4082512,43.1232763 20.7164939,43.8114615 C22.2972174,44.642982 23.5603148,44.5516061 26.5930608,43.9060545 C28.7201542,43.4535684 29.5382718,43.4215096 29.893344,43.6731618 C30.8133293,44.325188 31.6591919,45.016393 32.4344506,45.7416776 C34.3036004,47.4903399 35.6857328,49.3540789 36.6551779,51.2063446 C36.9106895,51.6945366 37.1214636,52.1523917 37.2915106,52.5723614 L39.5565806,53.0051724 C39.5565806,53.0051724 38.0526978,47.0046129 31.0498155,42.0414224 C28.7008223,40.3766078 24.1151457,43.3394441 21.6476015,42.0414224 C19.1800572,40.7434007 17.9301622,32.2308165 14.4840098,33.3151724 C11.0378575,34.3995283 9.11131611,47.1876724 9.11131611,47.1876724 L11.0889997,47.4856116 Z M11.0889997,47.4856116 C11.1036152,47.3885953 11.1342627,47.1965523 11.1806684,46.9232533 C11.2589412,46.4622789 11.3524586,45.9472641 11.4609005,45.3920886 C11.7701088,43.8090771 12.1355309,42.2276565 12.5526413,40.7624982 C13.4656107,37.5555669 14.5754245,35.3830807 15.0843076,35.2229571 C15.2162843,35.1814297 15.8429763,35.9486429 17.0614617,38.5589367 C17.109293,38.661403 17.2736381,39.0143783 17.2831265,39.034736 C17.3725667,39.2266344 17.4412703,39.3733531 17.5085817,39.5158991 C18.6659967,41.9669686 19.4082512,43.1232763 20.7164939,43.8114615 C22.2972174,44.642982 23.5603148,44.5516061 26.5930608,43.9060545 C28.7201542,43.4535684 29.5382718,43.4215096 29.893344,43.6731618 C30.8133293,44.325188 31.6591919,45.016393 32.4344506,45.7416776 C34.3036004,47.4903399 35.6857328,49.3540789 36.6551779,51.2063446 C36.9106895,51.6945366 37.1214636,52.1523917 37.2915106,52.5723614 L39.5565806,53.0051724 C39.5565806,53.0051724 38.0526978,47.0046129 31.0498155,42.0414224 C28.7008223,40.3766078 24.1151457,43.3394441 21.6476015,42.0414224 C19.1800572,40.7434007 17.9301622,32.2308165 14.4840098,33.3151724 C11.0378575,34.3995283 9.11131611,47.1876724 9.11131611,47.1876724 L11.0889997,47.4856116 Z" id="Path-5-Copy-5" fill="#484848" fill-rule="nonzero"></path>
                <path d="M52.2157136,41.1880493 C52.2069811,41.0879986 52.1882054,40.9114683 52.1571536,40.6691837 C52.1061727,40.2714011 52.038445,39.8296617 51.9516647,39.3545989 C51.703328,37.995125 51.3508842,36.6342496 50.8731091,35.3548981 C50.5069356,34.3743853 50.0797725,33.4793315 49.5840575,32.6887617 C49.0535801,31.8427527 48.4301582,31.0941085 47.6364466,30.2979017 C47.3479298,30.0084778 45.871804,28.6260685 45.5425864,28.2738414 C44.7844388,27.4627056 44.5167979,26.8809917 44.6010547,26.1792041 C44.8409304,24.1812422 46.4790613,22.5790981 49.1503207,21.3691142 C50.2210197,20.8841262 51.3770782,20.5005521 52.5342678,20.2100797 C52.9397704,20.1082923 53.315626,20.0256243 53.651513,19.960692 C53.8492717,19.9224621 53.9869237,19.8990288 54.0542281,19.8889304 L53.7574677,17.9110696 C53.6632678,17.9252035 53.4980993,17.9533211 53.2719094,17.9970472 C52.9012154,18.0687082 52.4897378,18.1592112 52.0473431,18.270259 C50.781969,18.5878874 49.5154639,19.0081071 48.3251035,19.5472974 C45.0833173,21.0157094 42.9569367,23.0953771 42.6153151,25.9407959 C42.4486104,27.3293058 42.9589909,28.4386113 44.0814535,29.6395246 C44.4657074,30.0506346 45.9749489,31.4640572 46.2200154,31.7098941 C46.9162744,32.408342 47.4477969,33.0466276 47.8896125,33.7512383 C48.308146,34.4187183 48.6779566,35.1935989 48.9994983,36.0545999 C49.4318176,37.2122332 49.7555931,38.4624129 49.984221,39.7139942 C50.0643783,40.1528007 50.1267572,40.5596543 50.1733796,40.9234295 C50.2008898,41.1380794 50.2168279,41.287931 50.2232884,41.3619507 L52.2157136,41.1880493 Z" id="Path-6-Copy-5" fill="#484848" fill-rule="nonzero"></path>
            </g>
            <g id="Group-6-Copy-2" transform="translate(284.497580, 30.677945) scale(1, -1) rotate(37.000000) translate(-284.497580, -30.677945) translate(267.997580, 5.177945)" fill="#484848">
                <path d="M23.3187518,42.5331878 C23.2965593,42.4865587 23.2933042,42.4720058 23.2851206,42.4625247 L23.3187518,42.5331878 Z M23.2203888,42.421329 L23.2843798,42.4616948 C23.2760325,42.4526521 23.2622459,42.4477327 23.2203888,42.421329 Z M29.7862317,39.2668739 L16.0928404,19.3652016 L13.077186,21.0144217 L23.2848741,42.4620066 L30.0810383,46.7490608 L29.7441653,39.1352036 C29.7517292,39.2219477 29.7618405,39.2314243 29.7862317,39.2668739 Z M16.2869963,16.9794726 C16.5245676,16.8495481 16.8468594,16.9327297 17.003466,17.1603383 L31.4338906,38.1331984 C31.5920146,38.3630123 31.7302735,38.7770049 31.7422106,39.0468007 L32.2260901,49.9832365 C32.2382466,50.2579913 32.0655036,50.3655404 31.8226675,50.2123582 L22.1533389,44.1128976 C21.9183782,43.9646833 21.6304831,43.6398367 21.5128528,43.3926811 L10.6738717,20.6186733 C10.5551016,20.3691231 10.6529817,20.0606379 10.8889803,19.9315735 L16.2869963,16.9794726 Z" id="Path-7" fill-rule="nonzero"></path>
                <ellipse id="Oval-6" cx="24.1025995" cy="36.0354533" rx="2" ry="1.75"></ellipse>
                <polygon id="Line" fill-rule="nonzero" points="14.0135086 25.9186524 19.7859717 23.156965 18.9228205 21.3528115 13.1503575 24.1144988"></polygon>
                <polygon id="Path-10" fill-rule="nonzero" points="23.0167166 43.8132045 31.0684836 39.4827512 30.1211513 37.7213423 22.0693843 42.0517955"></polygon>
                <path d="M8.28779958,17.8265398 L2.01965689,10.6665398 C1.69390569,10.2944393 1.12818516,10.2568658 0.756084721,10.582617 C0.383984284,10.9083683 0.346410808,11.4740888 0.672162013,11.8461892 L6.94030469,19.0061892 C7.2660559,19.3782897 7.83177643,19.4158631 8.20387687,19.0901119 C8.57597731,18.7643607 8.61355078,18.1986402 8.28779958,17.8265398 Z" id="Line" fill-rule="nonzero"></path>
                <path d="M13.2505616,9.54279493 L10.8110467,1.59301278 C10.6659658,1.12022943 10.1650878,0.854574151 9.69230444,0.99965511 C9.21952108,1.14473607 8.95386581,1.64561406 9.09894677,2.11839741 L11.5384616,10.0681796 C11.6835426,10.5409629 12.1844206,10.8066182 12.6572039,10.6615372 C13.1299873,10.5164563 13.3956426,10.0155783 13.2505616,9.54279493 Z" id="Line-Copy-8" fill-rule="nonzero"></path>
                <path d="M9.04755362,12.0469356 L2.77941094,3.0969356 C2.49571381,2.69185718 1.93735091,2.59345821 1.5322725,2.87715534 C1.12719408,3.16085247 1.02879511,3.71921537 1.31249224,4.12429378 L7.58063492,13.0742938 C7.86433205,13.4793722 8.42269495,13.5777712 8.82777336,13.294074 C9.23285178,13.0103769 9.33125075,12.452014 9.04755362,12.0469356 Z" id="Line-Copy-7" fill-rule="nonzero"></path>
                <path d="M17.5722789,11.8088694 L18.4677278,5.09636937 C18.5331207,4.60616904 18.1887462,4.1557718 17.6985458,4.09037897 C17.2083455,4.02498614 16.7579483,4.36936065 16.6925554,4.85956098 L15.7971065,11.572061 C15.7317136,12.0622613 16.0760882,12.5126586 16.5662885,12.5780514 C17.0564888,12.6434442 17.5068861,12.2990697 17.5722789,11.8088694 Z" id="Line-Copy-5" fill-rule="nonzero"></path>
            </g>
            <path d="M51.7792128,116.394988 C51.7792128,116.572607 51.7810741,116.750044 51.7847944,116.927271 C51.8021808,117.755516 52.4877003,118.412846 53.315945,118.39546 C54.1441896,118.378073 54.8015201,117.692554 54.7841336,116.864309 C54.7808539,116.708072 54.7792128,116.551624 54.7792128,116.394988 C54.7792128,115.566561 54.1076399,114.894988 53.2792128,114.894988 C52.4507857,114.894988 51.7792128,115.566561 51.7792128,116.394988 Z M53.0563948,124.254572 C53.113393,124.423239 53.1722492,124.591152 53.2329532,124.75828 C53.5157743,125.536935 54.3762708,125.938888 55.1549258,125.656067 C55.9335809,125.373246 56.3355337,124.512749 56.0527126,123.734094 C55.9996983,123.588137 55.9482904,123.441473 55.8984981,123.29413 C55.6332793,122.509305 54.7820505,122.08808 53.9972254,122.353299 C53.2124002,122.618518 52.791176,123.469747 53.0563948,124.254572 Z M56.8719996,131.273233 C56.9830313,131.412645 57.0957021,131.550753 57.2099956,131.687532 C57.7411936,132.323236 58.687155,132.407956 59.3228594,131.876758 C59.9585639,131.345559 60.043283,130.399598 59.5120849,129.763894 C59.4128764,129.645167 59.315073,129.525283 59.2186886,129.404262 C58.7025867,128.756242 57.7588792,128.649301 57.1108589,129.165403 C56.4628386,129.681505 56.3558977,130.625213 56.8719996,131.273233 Z M62.9040439,136.574792 C63.0560341,136.667037 63.2092612,136.757665 63.3637085,136.84666 C64.0814994,137.260263 64.9986756,137.013671 65.4122789,136.29588 C65.8258821,135.578089 65.5792893,134.660912 64.8614983,134.247309 C64.7267528,134.169667 64.5931006,134.090617 64.4605546,134.010172 C63.7523544,133.580354 62.8298079,133.806027 62.3999894,134.514227 C61.9701708,135.222427 62.1958437,136.144973 62.9040439,136.574792 Z M70.2539899,139.525157 C70.4256635,139.564511 70.5981448,139.602274 70.7714216,139.638441 C71.5823722,139.807707 72.376994,139.287518 72.5462592,138.476567 C72.7155243,137.665617 72.1953355,136.870995 71.3843849,136.70173 C71.2302538,136.669559 71.0768925,136.635981 70.9243102,136.601004 C70.1168276,136.4159 69.3121774,136.920438 69.1270735,137.72792 C68.9419697,138.535403 69.4465073,139.340053 70.2539899,139.525157 Z M78.1262537,140.217779 C78.2999245,140.210866 78.4740836,140.20259 78.6487242,140.192948 C79.4758916,140.147279 80.1094213,139.439706 80.0637524,138.612538 C80.0180835,137.785371 79.3105099,137.151841 78.4833425,137.19751 C78.3240357,137.206306 78.1652329,137.213852 78.00694,137.220152 C77.1791683,137.2531 76.5348361,137.950851 76.5677837,138.778623 C76.6007312,139.606394 77.2984821,140.250727 78.1262537,140.217779 Z M85.8769221,139.067743 C86.0472357,139.02336 86.2166223,138.97756 86.3850815,138.930346 C87.1827704,138.706775 87.6481848,137.87888 87.4246137,137.081191 C87.2010427,136.283502 86.3731479,135.818088 85.5754591,136.041659 C85.4246791,136.083918 85.2729933,136.124932 85.1203998,136.164697 C84.3187459,136.373605 83.8382303,137.192827 84.0471381,137.994481 C84.256046,138.796135 85.0752681,139.276651 85.8769221,139.067743 Z M93.1791325,135.954883 C93.3293713,135.860894 93.4785224,135.765339 93.6265852,135.668223 C94.3192965,135.213863 94.5125188,134.283979 94.0581593,133.591267 C93.6037998,132.898556 92.6739152,132.705334 91.9812039,133.159693 C91.8511116,133.245023 91.7200591,133.328982 91.5880439,133.41157 C90.8857277,133.850937 90.6725651,134.776455 91.1119321,135.478771 C91.551299,136.181087 92.4768162,136.39425 93.1791325,135.954883 Z M99.1610716,130.73031 C99.2745159,130.595551 99.3869268,130.459402 99.4983052,130.321867 C100.019664,129.678068 99.9204074,128.733522 99.276609,128.212163 C98.6328106,127.690804 97.6882639,127.790061 97.166905,128.433859 C97.0674865,128.556626 96.9671948,128.678096 96.866029,128.79827 C96.3325108,129.432028 96.4137717,130.378293 97.0475302,130.911811 C97.6812887,131.445329 98.6275534,131.364068 99.1610716,130.73031 Z M103.407818,124.083729 C103.483253,123.927552 103.557865,123.770299 103.631654,123.611972 C103.981609,122.861091 103.656593,121.968686 102.905711,121.618732 C102.154829,121.268778 101.262425,121.593793 100.912471,122.344675 C100.844513,122.490489 100.775833,122.635241 100.706429,122.778931 C100.346119,123.524899 100.658756,124.421714 101.404724,124.782024 C102.150692,125.142335 103.047508,124.829697 103.407818,124.083729 Z M106.112679,116.836355 C106.159017,116.67193 106.204726,116.50669 106.249807,116.340636 C106.466855,115.541148 105.994694,114.717082 105.195206,114.500034 C104.395717,114.282986 103.571652,114.755147 103.354604,115.554636 C103.312033,115.711443 103.268884,115.867429 103.225156,116.022591 C103.000441,116.819959 103.464668,117.64852 104.262035,117.873234 C105.059403,118.097949 105.887964,117.633722 106.112679,116.836355 Z M107.711391,109.324536 C107.736981,109.156941 107.762077,108.988711 107.786679,108.819848 C107.906116,108.000076 107.338382,107.238696 106.51861,107.11926 C105.698838,106.999823 104.937458,107.567557 104.818022,108.387329 C104.794404,108.549436 104.770317,108.710899 104.745762,108.871717 C104.620719,109.690653 105.183231,110.455898 106.002167,110.580941 C106.821102,110.705984 107.586348,110.143472 107.711391,109.324536 Z M108.509702,101.719386 C108.520166,101.550989 108.53023,101.382085 108.539894,101.212673 C108.587075,100.385591 107.95484,99.6768602 107.127758,99.6296789 C106.300675,99.5824977 105.591944,100.214733 105.544763,101.041815 C105.535387,101.20617 105.525625,101.370011 105.515477,101.533336 C105.464101,102.360169 106.092732,103.072098 106.919565,103.123474 C107.746397,103.17485 108.458326,102.546219 108.509702,101.719386 Z M108.714113,94.1067611 C108.713193,93.9384978 108.71194,93.7698184 108.710354,93.6007238 C108.702584,92.7723331 108.024742,92.1070887 107.196351,92.1148588 C106.367961,92.122629 105.702716,92.8004712 105.710486,93.6288619 C105.712036,93.7940496 105.71326,93.9588162 105.714158,94.1231608 C105.718687,94.9515755 106.393921,95.6194672 107.222336,95.6149385 C108.05075,95.6104099 108.718642,94.9351759 108.714113,94.1067611 Z M108.464244,86.5152859 C108.45444,86.3474792 108.444352,86.1793246 108.43398,86.0108228 C108.383081,85.1839608 107.671515,84.5549182 106.844653,84.6058169 C106.017791,84.6567156 105.388749,85.3682813 105.439647,86.1951433 C105.449828,86.3605318 105.459729,86.5255687 105.46935,86.6902531 C105.517666,87.5172701 106.227264,88.148532 107.054281,88.1002162 C107.881298,88.0519003 108.51256,87.3423028 108.464244,86.5152859 Z M107.859303,78.9991917 C107.842411,78.8323126 107.825273,78.6651389 107.807888,78.4976713 C107.722348,77.6736723 106.985021,77.0750331 106.161022,77.1605732 C105.337023,77.2461134 104.738383,77.9834405 104.823923,78.8074396 C104.841044,78.9723616 104.857921,79.1369864 104.874555,79.3013133 C104.957983,80.1255288 105.693774,80.7260553 106.51799,80.6426267 C107.342205,80.5591981 107.942732,79.8234072 107.859303,78.9991917 Z M106.962961,71.506898 C106.940203,71.3408816 106.917227,71.1746127 106.894034,71.0080922 C106.779756,70.1875851 106.021962,69.6150739 105.201455,69.7293526 C104.380948,69.8436313 103.808437,70.6014249 103.922715,71.421932 C103.945612,71.5863232 103.968293,71.7504601 103.990758,71.9143421 C104.103271,72.7350932 104.859831,73.309234 105.680582,73.1967214 C106.501333,73.0842089 107.075474,72.3276492 106.962961,71.506898 Z M105.823864,64.0514931 C105.796167,63.8864061 105.768277,63.7211014 105.740193,63.5555796 C105.601617,62.738825 104.827169,62.1890525 104.010414,62.3276285 C103.19366,62.4662045 102.643887,63.240653 102.782463,64.0574077 C102.810239,64.2211143 102.837822,64.3846018 102.865214,64.5478695 C103.002285,65.3648782 103.775719,65.916077 104.592727,65.7790064 C105.409736,65.6419358 105.960935,64.8685018 105.823864,64.0514931 Z M104.53187,56.6913828 C104.506991,56.5302992 104.482781,56.3696235 104.459239,56.2093555 C104.33884,55.3897242 103.576794,54.8228847 102.757163,54.943284 C101.937532,55.0636834 101.370692,55.8257288 101.491091,56.6453601 C101.515708,56.81294 101.541018,56.9809156 101.567022,57.1492871 C101.693469,57.9680072 102.459678,58.5292057 103.278398,58.402759 C104.097118,58.2763122 104.658317,57.510103 104.53187,56.6913828 Z M103.850282,49.4091004 C103.845701,49.2460945 103.841908,49.0835914 103.838901,48.9215907 C103.823525,48.0933063 103.139604,47.4343136 102.311319,47.4496893 C101.483035,47.465065 100.824042,48.1489866 100.839418,48.977271 C100.842602,49.1488113 100.846617,49.320843 100.851465,49.4933662 C100.874735,50.3214665 101.564906,50.9739108 102.393006,50.9506415 C103.221107,50.9273721 103.873551,50.2372006 103.850282,49.4091004 Z M104.203461,42.154231 C104.224661,41.9944722 104.246755,41.8353153 104.269739,41.6767597 C104.388587,40.856902 103.820306,40.0959309 103.000448,39.9770832 C102.18059,39.8582356 101.419619,40.4265166 101.300772,41.2463743 C101.27606,41.4168444 101.252313,41.5879162 101.229532,41.7595897 C101.120554,42.5808177 101.697948,43.334898 102.519176,43.4438752 C103.340404,43.5528524 104.094484,42.975459 104.203461,42.154231 Z M105.82838,35.1456644 C105.880156,34.9945731 105.932908,34.844181 105.986633,34.6944876 C106.266478,33.9147581 105.861242,33.055803 105.081512,32.7759576 C104.301783,32.4961123 103.442828,32.9013485 103.162982,33.681078 C103.104376,33.8443719 103.046843,34.0083951 102.990386,34.1731472 C102.721833,34.9568377 103.139434,35.8098497 103.923124,36.0784029 C104.706815,36.3469561 105.559827,35.9293549 105.82838,35.1456644 Z M108.894276,28.6747969 C108.978303,28.5402334 109.063315,28.4064334 109.149309,28.2733963 C109.599026,27.5776619 109.399589,26.6490903 108.703855,26.1993735 C108.008121,25.7496567 107.079549,25.9490933 106.629832,26.6448277 C106.535352,26.7909938 106.441952,26.9379945 106.349638,27.0858295 C105.910857,27.7885118 106.124791,28.7138509 106.827474,29.1526322 C107.530156,29.5914134 108.455495,29.3774793 108.894276,28.6747969 Z M113.344437,23.1158406 C113.457625,23.0037615 113.571718,22.8924761 113.686709,22.7819847 C114.284065,22.2080013 114.303012,21.2584428 113.729029,20.6610865 C113.155046,20.0637302 112.205487,20.0447826 111.608131,20.618766 C111.482317,20.7396568 111.357468,20.8614344 111.23359,20.9840983 C110.644925,21.5669926 110.640248,22.5167286 111.223142,23.105393 C111.806036,23.6940573 112.755772,23.6987349 113.344437,23.1158406 Z M118.971001,18.6456668 C119.105736,18.5598522 119.24119,18.4748286 119.377356,18.3905969 C120.081881,17.95478 120.299711,17.0303504 119.863894,16.3258257 C119.428077,15.621301 118.503648,15.4034703 117.799123,15.8392873 C117.6518,15.9304209 117.505217,16.0224297 117.359383,16.1153134 C116.660645,16.5603494 116.454979,17.4875612 116.900015,18.186299 C117.345051,18.8850368 118.272263,19.0907028 118.971001,18.6456668 Z M125.416837,15.3514085 C125.566176,15.291302 125.715987,15.2319923 125.866258,15.1734807 C126.638229,14.872895 127.020363,14.0034157 126.719777,13.2314444 C126.419192,12.4594731 125.549712,12.0773396 124.777741,12.3779253 C124.616925,12.440543 124.456576,12.5040242 124.296709,12.5683682 C123.528194,12.8776829 123.155938,13.7514369 123.465253,14.5199523 C123.774567,15.2884676 124.648321,15.6607233 125.416837,15.3514085 Z M132.33531,13.2068337 C132.49305,13.1713696 132.650922,13.1367361 132.808906,13.1029342 C133.618998,12.9296083 134.1352,12.1323903 133.961874,11.3222979 C133.788548,10.5122056 132.99133,9.99600432 132.181237,10.1693302 C132.013123,10.2052997 131.845122,10.242155 131.677257,10.2798955 C130.869005,10.4616117 130.361098,11.2641392 130.542814,12.0723909 C130.72453,12.8806425 131.527058,13.3885499 132.33531,13.2068337 Z M139.520673,12.1719211 C139.681992,12.1617259 139.842853,12.1524636 140.003219,12.1441327 C140.830531,12.1011543 141.466359,11.3956449 141.42338,10.5683334 C141.380402,9.74102183 140.674892,9.10519422 139.847581,9.14817265 C139.676011,9.15708563 139.503955,9.16699246 139.331453,9.17789447 C138.504675,9.23014618 137.876798,9.94274025 137.929049,10.7695179 C137.981301,11.5962955 138.693895,12.2241729 139.520673,12.1719211 Z M146.718318,12.3867287 C146.877278,12.4076257 147.036173,12.4294713 147.194985,12.452264 C148.01501,12.5699544 148.775178,12.0006 148.892869,11.1805753 C149.010559,10.3605506 148.441205,9.60038235 147.62118,9.48269196 C147.45065,9.45821745 147.280029,9.43475987 147.109337,9.41232044 C146.287976,9.30434355 145.5346,9.88265495 145.426623,10.7040151 C145.318646,11.5253752 145.896957,12.2787518 146.718318,12.3867287 Z M153.778308,13.9678367 C153.930956,14.0169357 154.083202,14.0669443 154.235031,14.1178598 C155.02047,14.3812547 155.870718,13.9580543 156.134113,13.1726152 C156.397508,12.3871761 155.974308,11.5369281 155.188869,11.2735331 C155.025307,11.2186831 154.861313,11.1648157 154.696904,11.1119337 C153.908268,10.8582705 153.063318,11.2919514 152.809655,12.0805873 C152.555991,12.8692231 152.989672,13.7141734 153.778308,13.9678367 Z M160.398032,16.8217133 C160.538112,16.8994564 160.677501,16.9780828 160.816188,17.0575889 C161.534891,17.4696054 162.45152,17.220987 162.863537,16.502284 C163.275553,15.7835811 163.026935,14.8669519 162.308232,14.4549354 C162.157496,14.3685221 162.006025,14.2830801 161.853829,14.1986128 C161.129479,13.7966057 160.216387,14.0579155 159.81438,14.7822647 C159.412373,15.5066139 159.673683,16.4197062 160.398032,16.8217133 Z M166.240715,20.9435151 C166.359426,21.049064 166.477223,21.1554535 166.594099,21.2626802 C167.204541,21.8227265 168.153409,21.7818725 168.713455,21.1714302 C169.273502,20.560988 169.232648,19.6121196 168.622206,19.0520734 C168.493827,18.934293 168.364455,18.8174506 168.234101,18.7015496 C167.615,18.1510911 166.666884,18.2067373 166.116425,18.825839 C165.565967,19.4449407 165.621613,20.3930566 166.240715,20.9435151 Z M170.968037,26.2929239 C171.057451,26.4233907 171.145818,26.5546381 171.23313,26.686664 C171.690102,27.3776546 172.62071,27.5673641 173.3117,27.110392 C174.002691,26.65342 174.1924,25.7228123 173.735428,25.0318217 C173.638997,24.8860078 173.541403,24.7410546 173.442653,24.5969655 C172.974327,23.9136191 172.040712,23.7393107 171.357366,24.2076367 C170.674019,24.6759627 170.499711,25.6095776 170.968037,26.2929239 Z M174.234704,32.6018113 C174.290132,32.750463 174.344491,32.899808 174.397774,33.0498451 C174.675014,33.8305047 175.532612,34.2386066 176.313271,33.9613664 C177.093931,33.6841261 177.502033,32.8265289 177.224792,32.0458693 C177.166268,31.8810741 177.106552,31.7170091 177.045649,31.5536768 C176.756215,30.7774556 175.89233,30.382837 175.116109,30.6722714 C174.339888,30.9617057 173.945269,31.8255902 174.234704,32.6018113 Z M175.967212,39.5663766 C175.988996,39.7244876 176.009785,39.8831782 176.029576,40.0424474 C176.131734,40.8645517 176.880996,41.4481838 177.7031,41.3460264 C178.525204,41.2438689 179.108836,40.4946068 179.006679,39.6725026 C178.985251,39.5000588 178.962736,39.3281947 178.939137,39.1569118 C178.826066,38.3362374 178.069116,37.7626111 177.248442,37.8756817 C176.427767,37.9887522 175.854141,38.7457021 175.967212,39.5663766 Z M176.278578,46.8079372 C176.271523,46.9686575 176.263592,47.1298443 176.254784,47.2914972 C176.209708,48.1186971 176.843745,48.8258161 177.670945,48.8708917 C178.498145,48.9159673 179.205264,48.2819303 179.250339,47.4547304 C179.259723,47.2825318 179.268173,47.1107854 179.275692,46.939492 C179.31202,46.1118618 178.670542,45.4114854 177.842912,45.3751575 C177.015282,45.3388296 176.314906,45.9803069 176.278578,46.8079372 Z M175.636474,54.1670182 C175.617935,54.3290037 175.598984,54.4929717 175.579603,54.6591082 C175.483609,55.4819549 176.072839,56.2268224 176.895686,56.3228162 C177.718533,56.4188101 178.4634,55.8295795 178.559394,55.0067328 C178.579026,54.8384488 178.598228,54.6723111 178.617018,54.5081303 C178.711213,53.6850758 178.120356,52.9414978 177.297302,52.8473022 C176.474247,52.7531067 175.730669,53.3439637 175.636474,54.1670182 Z M174.709046,61.5861754 C174.67705,61.8331643 174.67705,61.8331643 174.644974,62.080969 C174.538659,62.9025459 175.118493,63.654751 175.94007,63.7610661 C176.761647,63.8673812 177.513852,63.287547 177.620167,62.4659701 C177.652206,62.2184516 177.652206,62.2184516 177.68418,61.9716289 C177.79062,61.1500682 177.2109,60.3977749 176.38934,60.2913349 C175.567779,60.1848948 174.815486,60.7646146 174.709046,61.5861754 Z M173.779403,69.047775 C173.760065,69.2148883 173.74099,69.3809403 173.722169,69.5460331 C173.628332,70.3691286 174.219513,71.112449 175.042608,71.2062858 C175.865704,71.3001226 176.609024,70.7089416 176.702861,69.8858462 C176.72149,69.7224437 176.740372,69.5580695 176.759517,69.3926227 C176.854744,68.5696869 176.264819,67.8253689 175.441883,67.7301418 C174.618948,67.6349147 173.87463,68.2248392 173.779403,69.047775 Z M173.028617,76.5621141 C173.01499,76.7303072 173.001652,76.8979901 172.988602,77.0651876 C172.924137,77.8911028 173.541415,78.6128979 174.36733,78.6773622 C175.193246,78.7418265 175.915041,78.1245486 175.979505,77.2986334 C175.992325,77.1343864 176.00543,76.9696428 176.018819,76.8043783 C176.085719,75.9786568 175.470572,75.2550446 174.64485,75.1881452 C173.819129,75.1212458 173.095517,75.7363926 173.028617,76.5621141 Z M172.603951,84.1317009 C172.599158,84.3008844 172.594723,84.4697035 172.590648,84.6381682 C172.570611,85.466353 173.225745,86.1539719 174.05393,86.174008 C174.882115,86.1940441 175.569734,85.5389102 175.58977,84.7107254 C175.593745,84.5464025 175.598072,84.3817145 175.602748,84.2166515 C175.626206,83.3885566 174.97392,82.6982362 174.145825,82.6747777 C173.31773,82.6513192 172.627409,83.303606 172.603951,84.1317009 Z M172.644848,91.7425464 C172.651968,91.9118937 172.659524,92.0809237 172.667517,92.2496415 C172.706722,93.0771404 173.409323,93.7161795 174.236822,93.6769751 C175.064321,93.6377708 175.70336,92.9351689 175.664156,92.1076699 C175.656415,91.9442789 175.649097,91.7805655 175.6422,91.6165251 C175.6074,90.7888292 174.908209,90.14606 174.080514,90.1808598 C173.252818,90.2156596 172.610048,90.9148505 172.644848,91.7425464 Z M173.290168,99.3423069 C173.312237,99.5106018 173.334821,99.6785885 173.357923,99.8462696 C173.470991,100.666944 174.227938,101.240574 175.048613,101.127506 C175.869288,101.014439 176.442917,100.257491 176.32985,99.4368162 C176.30764,99.2756085 176.285925,99.1140876 176.264703,98.9522509 C176.156992,98.1308558 175.403803,97.5523006 174.582408,97.6600116 C173.761012,97.7677226 173.182457,98.5209118 173.290168,99.3423069 Z M174.67714,106.872627 C174.717146,107.038457 174.757748,107.203968 174.798948,107.369163 C174.999417,108.172968 175.813543,108.662069 176.617349,108.4616 C177.421154,108.26113 177.910255,107.447005 177.709786,106.643199 C177.670448,106.48547 177.631677,106.327422 177.59347,106.169054 C177.399184,105.363731 176.588841,104.868389 175.783518,105.062675 C174.978196,105.256961 174.482853,106.067304 174.67714,106.872627 Z M176.926217,114.227615 C176.986327,114.387778 177.047096,114.547608 177.108526,114.707107 C177.406269,115.480179 178.274337,115.865509 179.047409,115.567765 C179.820481,115.270022 180.20581,114.401954 179.908067,113.628882 C179.849729,113.477411 179.792014,113.325614 179.734922,113.173491 C179.443833,112.397888 178.57911,112.005112 177.803507,112.2962 C177.027905,112.587289 176.635128,113.452012 176.926217,114.227615 Z M180.104404,121.250739 C180.185253,121.401582 180.266797,121.552083 180.349037,121.702243 C180.746978,122.428834 181.658591,122.695258 182.385182,122.297317 C183.111773,121.899376 183.378197,120.987763 182.980256,120.261172 C182.902361,120.118946 182.825125,119.976394 182.748544,119.833516 C182.357189,119.103357 181.448021,118.828702 180.717862,119.220057 C179.987703,119.611412 179.713048,120.52058 180.104404,121.250739 Z M184.187455,127.765951 C184.287908,127.90449 184.389059,128.042689 184.490909,128.180549 C184.983174,128.846856 185.922384,128.987945 186.588691,128.495679 C187.254999,128.003413 187.396088,127.064204 186.903822,126.397896 C186.807278,126.267219 186.711401,126.136224 186.616189,126.004913 C186.129891,125.334236 185.191979,125.184768 184.521303,125.671065 C183.850627,126.157362 183.701158,127.095274 184.187455,127.765951 Z M189.102595,133.68345 C189.219788,133.807394 189.33765,133.931013 189.456182,134.054307 C190.030323,134.651512 190.979886,134.670209 191.577092,134.096069 C192.174297,133.521928 192.192994,132.572364 191.618853,131.975159 C191.506073,131.857848 191.393939,131.740237 191.282451,131.622326 C190.713287,131.020376 189.763912,130.993797 189.161961,131.56296 C188.560011,132.132124 188.533432,133.081499 189.102595,133.68345 Z M194.702995,138.933008 C194.833614,139.041913 194.964854,139.150515 195.096717,139.258816 C195.736901,139.784607 196.682111,139.691872 197.207901,139.051688 C197.733692,138.411504 197.640958,137.466295 197.000774,136.940504 C196.874616,136.83689 196.749067,136.732997 196.624125,136.628825 C195.987843,136.09832 195.041974,136.184069 194.511469,136.820352 C193.980963,137.456635 194.066713,138.402503 194.702995,138.933008 Z M200.847306,143.512196 C200.989212,143.606273 201.131336,143.69973 201.273676,143.792566 C201.967563,144.245128 202.896944,144.049495 203.349506,143.355608 C203.802068,142.661721 203.606435,141.732341 202.912548,141.279779 C202.776491,141.191041 202.640635,141.101706 202.50498,141.011772 C201.814507,140.554018 200.883685,140.742674 200.425931,141.433147 C199.968177,142.12362 200.156833,143.054442 200.847306,143.512196 Z M207.475811,147.378009 C207.627751,147.455092 207.779888,147.531518 207.93222,147.607288 C208.673957,147.97623 209.574339,147.674019 209.943281,146.932282 C210.312222,146.190545 210.010012,145.290163 209.268275,144.921221 C209.123035,144.848979 208.977976,144.776108 208.833099,144.702609 C208.094307,144.327804 207.191559,144.622874 206.816754,145.361665 C206.44195,146.100457 206.737019,147.003205 207.475811,147.378009 Z M214.531638,150.437683 C214.691684,150.49578 214.851892,150.553197 215.012259,150.609934 C215.793249,150.886244 216.650359,150.47712 216.926669,149.696131 C217.202978,148.915141 216.793854,148.058031 216.012865,147.781721 C215.86019,147.727706 215.707665,147.673042 215.555291,147.61773 C214.776583,147.335056 213.916162,147.737171 213.633488,148.51588 C213.350814,149.294588 213.752929,150.155009 214.531638,150.437683 Z M221.895435,152.607634 C222.062517,152.64583 222.229715,152.683323 222.397026,152.720116 C223.206121,152.898039 224.006258,152.386373 224.184181,151.577278 C224.362104,150.768183 223.850438,149.968047 223.041343,149.790123 C222.88212,149.75511 222.723006,149.719429 222.564002,149.68308 C221.756409,149.49846 220.952061,150.00348 220.767442,150.811073 C220.582822,151.618667 221.087842,152.423014 221.895435,152.607634 Z M229.485636,153.854598 C229.655707,153.871853 229.825834,153.888409 229.996012,153.904269 C230.820865,153.981139 231.551856,153.37478 231.628727,152.549927 C231.705598,151.725074 231.099238,150.994083 230.274385,150.917212 C230.112354,150.902112 229.950374,150.886348 229.788449,150.86992 C228.964253,150.7863 228.228323,151.386656 228.144703,152.210852 C228.061084,153.035048 228.66144,153.770978 229.485636,153.854598 Z M237.159864,154.162553 C237.330975,154.159045 237.502069,154.154849 237.673142,154.149966 C238.501231,154.12633 239.153371,153.435871 239.129735,152.607781 C239.1061,151.779691 238.41564,151.127552 237.58755,151.151187 C237.424507,151.155841 237.261447,151.15984 237.098373,151.163183 C236.27012,151.180163 235.612453,151.86536 235.629433,152.693613 C235.646414,153.521866 236.331611,154.179533 237.159864,154.162553 Z M244.799992,153.548978 C244.968497,153.525339 245.1369,153.501042 245.305197,153.476087 C246.124664,153.354578 246.690471,152.591766 246.568962,151.772298 C246.447453,150.952831 245.684641,150.387024 244.865174,150.508533 C244.704621,150.532339 244.543969,150.555518 244.383222,150.578068 C243.562828,150.693156 242.991064,151.451514 243.106152,152.271908 C243.22124,153.092302 243.979598,153.664066 244.799992,153.548978 Z M252.33525,152.036199 C252.499767,151.993018 252.664082,151.949208 252.828189,151.904772 C253.627821,151.688253 254.100526,150.864499 253.884007,150.064868 C253.667487,149.265236 252.843733,148.79253 252.044102,149.00905 C251.887477,149.05146 251.730654,149.093272 251.573639,149.134484 C250.772352,149.344797 250.293274,150.164861 250.503587,150.966147 C250.7139,151.767433 251.533964,152.246512 252.33525,152.036199 Z M259.640443,149.654166 C259.799062,149.591921 259.95736,149.529082 260.115331,149.465653 C260.884101,149.156972 261.257077,148.283526 260.948397,147.514755 C260.639716,146.745985 259.76627,146.373009 258.997499,146.681689 C258.846828,146.742188 258.69584,146.802124 258.544544,146.861496 C257.773369,147.16412 257.393534,148.034606 257.696159,148.805781 C257.998783,149.576955 258.869269,149.95679 259.640443,149.654166 Z M266.622502,146.419155 C266.772955,146.337988 266.922941,146.25627 267.072454,146.174006 C267.798269,145.774652 268.062918,144.862522 267.663565,144.136707 C267.264211,143.410891 266.352081,143.146242 265.626265,143.545596 C265.484001,143.623872 265.341276,143.701633 265.1981,143.778875 C264.469007,144.172213 264.196823,145.082123 264.590161,145.811216 C264.983498,146.54031 265.893408,146.812493 266.622502,146.419155 Z M273.145498,142.344288 C273.284653,142.2441 273.42316,142.143419 273.561011,142.042252 C274.22888,141.552108 274.372956,140.613352 273.882811,139.945482 C273.392667,139.277612 272.453911,139.133537 271.786041,139.623681 C271.655538,139.719457 271.524398,139.814782 271.392629,139.909652 C270.720323,140.393693 270.567704,141.331098 271.051746,142.003404 C271.535787,142.67571 272.473192,142.828329 273.145498,142.344288 Z M279.064296,137.406484 C279.187911,137.286565 279.310643,137.166231 279.432485,137.045488 C280.02092,136.462363 280.025225,135.512625 279.442099,134.92419 C278.858974,134.335754 277.909236,134.33145 277.320801,134.914575 C277.206527,135.027818 277.091395,135.140701 276.975411,135.253217 C276.380803,135.830046 276.36639,136.779684 276.94322,137.374293 C277.520049,137.968901 278.469687,137.983314 279.064296,137.406484 Z M284.137054,131.571574 C284.238643,131.430594 284.339035,131.289308 284.438222,131.147723 C284.913545,130.469225 284.748838,129.533868 284.07034,129.058545 C283.391841,128.583223 282.456485,128.747929 281.981162,129.426428 C281.889628,129.557089 281.796949,129.68752 281.703134,129.817711 C281.218819,130.48982 281.371055,131.427287 282.043163,131.911602 C282.715272,132.395918 283.652739,132.243682 284.137054,131.571574 Z M288.001423,124.774386 C288.070122,124.616972 288.138147,124.458782 288.205502,124.299818 C288.528701,123.537037 288.17235,122.656677 287.409569,122.333478 C286.646789,122.01028 285.766428,122.366631 285.44323,123.129411 C285.38005,123.278523 285.31626,123.426861 285.251861,123.574424 C284.920501,124.333695 285.267391,125.217826 286.026661,125.549186 C286.785932,125.880547 287.670063,125.533657 288.001423,124.774386 Z M290.557272,117.499465 C290.603021,117.334744 290.648217,117.169435 290.692862,117.00354 C290.908145,116.203575 290.434166,115.380553 289.6342,115.16527 C288.834235,114.949987 288.011213,115.423966 287.79593,116.223932 C287.753366,116.382097 287.710285,116.539668 287.666688,116.696643 C287.444994,117.494856 287.912356,118.321653 288.710568,118.543346 C289.508781,118.765039 290.335578,118.297678 290.557272,117.499465 Z M292.196743,110.015749 C292.224601,109.848537 292.252002,109.680894 292.278948,109.512825 C292.410093,108.694844 291.853302,107.925426 291.035321,107.794282 C290.21734,107.663137 289.447922,108.219928 289.316778,109.037909 C289.290797,109.199957 289.264382,109.361569 289.23753,109.522741 C289.10139,110.339905 289.653468,111.112711 290.470633,111.248852 C291.287797,111.384992 292.060603,110.832914 292.196743,110.015749 Z M293.128059,102.44789 C293.142073,102.279359 293.155698,102.11053 293.168937,101.941407 C293.233587,101.115506 292.616472,100.393572 291.790571,100.328922 C290.964671,100.264272 290.242736,100.881387 290.178086,101.707288 C290.165225,101.871591 290.151989,102.03559 290.138377,102.199283 C290.069726,103.02486 290.683337,103.749776 291.508914,103.818427 C292.334492,103.887078 293.059408,103.273467 293.128059,102.44789 Z M293.498756,94.8622782 C293.501588,94.6938354 293.504086,94.5252251 293.50625,94.3564508 C293.516874,93.5280918 292.853969,92.8479618 292.02561,92.837338 C291.197251,92.8267141 290.517121,93.4896195 290.506497,94.3179785 C290.504383,94.482773 290.501945,94.6473963 290.49918,94.8118447 C290.485253,95.6401548 291.145441,96.3229226 291.973751,96.3368495 C292.802061,96.3507763 293.484829,95.6905882 293.498756,94.8622782 Z M293.409494,87.2679267 C293.402936,87.0996389 293.396087,86.9313431 293.388948,86.7630434 C293.35384,85.9353605 292.65441,85.2928516 291.826727,85.3279595 C290.999044,85.3630675 290.356535,86.0624976 290.391643,86.8901805 C290.398636,87.0550454 290.405345,87.2199 290.411769,87.3847397 C290.444026,88.2125386 291.141239,88.8574527 291.969038,88.8251956 C292.796837,88.7929386 293.441751,88.0957256 293.409494,87.2679267 Z M292.925782,79.7172683 C292.910899,79.549185 292.895769,79.3813709 292.880396,79.2138326 C292.804698,78.3888712 292.07457,77.7814727 291.249608,77.8571702 C290.424647,77.9328677 289.817248,78.6629961 289.892946,79.4879575 C289.908029,79.6523312 289.922873,79.8169741 289.937475,79.9818794 C290.010545,80.8070777 290.738736,81.4167979 291.563934,81.3437276 C292.389133,81.2706572 292.998853,80.5424666 292.925782,79.7172683 Z M292.078189,72.1978077 C292.055079,72.0298059 292.031843,71.8630269 292.008489,71.6974896 C291.892761,70.8771856 291.133958,70.3060135 290.313654,70.421741 C289.49335,70.5374685 288.922178,71.296272 289.037905,72.116576 C289.060778,72.2787011 289.083538,72.4420588 289.106176,72.6066299 C289.219069,73.4273288 289.975895,74.0011187 290.796593,73.8882255 C291.617292,73.7753324 292.191082,73.0185065 292.078189,72.1978077 Z" id="Path-2-Copy-2" fill="#484848" fill-rule="nonzero"></path>
            <g id="Group-2" transform="translate(275.000000, 18.000000)" fill-rule="nonzero" fill="#484848">
                <path d="M6.83560101,11.0136061 L0.835601013,12.0136061 C0.290830691,12.1044011 -0.0771889774,12.6196287 0.0136060762,13.164399 C0.10440113,13.7091693 0.619628666,14.077189 1.16439899,13.9863939 L7.16439899,12.9863939 C7.70916931,12.8955989 8.07718898,12.3803713 7.98639392,11.835601 C7.89559887,11.2908307 7.38037133,10.922811 6.83560101,11.0136061 Z" id="Line"></path>
                <path d="M12.2106478,1.61394061 L19.2106478,10.6139406 C19.5497178,11.0498878 20.1779934,11.1284223 20.6139406,10.7893522 C21.0498878,10.4502822 21.1284223,9.82200658 20.7893522,9.38605939 L13.7893522,0.386059386 C13.4502822,-0.0498878054 11.8715777,1.17799342 12.2106478,1.61394061 Z" id="Line"></path>
                <path d="M14.164399,11.9863939 L20.164399,10.9863939 C20.7091693,10.8955989 21.077189,10.3803713 20.9863939,9.83560101 C20.8955989,9.29083069 20.3803713,8.92281102 19.835601,9.01360608 L13.835601,10.0136061 C13.2908307,10.1044011 12.922811,10.6196287 13.0136061,11.164399 C13.1044011,11.7091693 13.6196287,12.077189 14.164399,11.9863939 Z" id="Line-Copy-6"></path>
                <path d="M4.06020658,1.65825694 L0.0602065765,12.6582569 C-0.128532906,13.1772905 0.139223361,13.7510539 0.658256937,13.9397934 C1.17729051,14.1285329 1.75105394,13.8607766 1.93979342,13.3417431 L5.93979342,2.34174306 C6.12853291,1.82270949 5.86077664,1.24894606 5.34174306,1.06020658 C4.82270949,0.871467094 4.24894606,1.13922336 4.06020658,1.65825694 Z" id="Path-11"></path>
            </g>
        </g>
    </g>
</svg>